<svg xmlns="http://www.w3.org/2000/svg" width="55" height="55" viewBox="0 0 55 55"><defs><style>.a,.d{fill:none;}.a{stroke:#00b1bf;}.b{fill:#00b1bf;}.c{stroke:none;}</style></defs><g transform="translate(-309 -3949)"><g class="a" transform="translate(309 3949)"><circle class="c" cx="27.5" cy="27.5" r="27.5"/><circle class="d" cx="27.5" cy="27.5" r="27"/></g><path class="b" d="M-1.5,1.568-.3.369A.727.727,0,0,0-.3-.658L-11.238-11.625-.3-22.592a.727.727,0,0,0,0-1.028l-1.2-1.2a.727.727,0,0,0-1.028,0L-15.2-12.139a.727.727,0,0,0,0,1.028L-2.523,1.568A.727.727,0,0,0-1.5,1.568Z" transform="translate(341 3988)"/></g></svg>