<svg xmlns="http://www.w3.org/2000/svg" width="335.377" height="691.386" viewBox="0 0 335.377 691.386"><defs><style>.a{opacity:0.699;}.b{opacity:0.333;}.c{fill:#c6c6c6;}</style></defs><g class="a" transform="translate(2.084 -2716.431)"><g class="b" transform="translate(-2.063 2716.445)"><path class="c" d="M398.313,309.542a5.546,5.546,0,0,0,4.112-5.333v-.014a5.515,5.515,0,0,0-5.515-5.515H396.9a5.544,5.544,0,0,0-5.332,4.112,15.47,15.47,0,0,1-29.823,0,5.544,5.544,0,0,0-5.332-4.112h-.014a5.515,5.515,0,0,0-5.515,5.515v.014a5.546,5.546,0,0,0,4.112,5.333,15.468,15.468,0,0,1,0,29.821,5.544,5.544,0,0,0-4.112,5.332v.012a5.513,5.513,0,0,0,5.515,5.513h.014a5.544,5.544,0,0,0,5.332-4.11,15.47,15.47,0,0,1,29.823,0,5.544,5.544,0,0,0,5.332,4.11h.014a5.515,5.515,0,0,0,5.515-5.513v-.016a5.544,5.544,0,0,0-4.112-5.332,15.468,15.468,0,0,1,0-29.821Z" transform="translate(-342.485 -290.279)"/><path class="c" d="M342.247,253.252h0a1.21,1.21,0,0,0,1.383.228,11.007,11.007,0,0,1,12.54,2.1,1.224,1.224,0,0,0,1.7.038,1.2,1.2,0,0,0,.021-1.716,13.413,13.413,0,0,0-15.323-2.573,1.2,1.2,0,0,0-.316,1.922Z" transform="translate(-335.053 -250)"/><path class="c" d="M303.532,290.332a13.411,13.411,0,0,0,2.525,15.3,1.23,1.23,0,0,0,1.612.15,1.2,1.2,0,0,0,.124-1.806,11.007,11.007,0,0,1-2.115-12.566,1.21,1.21,0,0,0-.226-1.383h0a1.2,1.2,0,0,0-1.92.308Z" transform="translate(-302.202 -282.828)"/><path class="c" d="M578.182,613.617a11.007,11.007,0,0,1-12.544-2.1,1.2,1.2,0,1,0-1.713,1.689,13.41,13.41,0,0,0,15.323,2.572,1.2,1.2,0,0,0,.311-1.922h0A1.21,1.21,0,0,0,578.182,613.617Z" transform="translate(-518.418 -548.749)"/><path class="c" d="M663.674,511.783a1.222,1.222,0,0,0,.038,1.69,11,11,0,0,1,2.1,12.559,1.21,1.21,0,0,0,.228,1.383h0a1.2,1.2,0,0,0,1.922-.311,13.413,13.413,0,0,0-2.566-15.333,1.2,1.2,0,0,0-1.72.012Z" transform="translate(-600.954 -466.246)"/><path class="c" d="M665.814,291.386a11.009,11.009,0,0,1-2.1,12.549,1.222,1.222,0,0,0-.038,1.69,1.2,1.2,0,0,0,1.718.022,13.41,13.41,0,0,0,2.566-15.328,1.2,1.2,0,0,0-1.922-.311h0A1.21,1.21,0,0,0,665.814,291.386Z" transform="translate(-600.954 -282.814)"/><path class="c" d="M565.667,255.583a11.008,11.008,0,0,1,12.549-2.1,1.21,1.21,0,0,0,1.383-.228h0a1.2,1.2,0,0,0-.311-1.922,13.41,13.41,0,0,0-15.328,2.57,1.2,1.2,0,0,0,.022,1.718A1.218,1.218,0,0,0,565.667,255.583Z" transform="translate(-518.447 -250)"/><path class="c" d="M356.111,611.511a11.008,11.008,0,0,1-12.549,2.1,1.21,1.21,0,0,0-1.383.228h0a1.2,1.2,0,0,0,.311,1.922,13.412,13.412,0,0,0,15.333-2.563,1.2,1.2,0,1,0-1.713-1.687Z" transform="translate(-334.995 -548.744)"/><path class="c" d="M305.675,525.974a11.007,11.007,0,0,1,2.1-12.547,1.222,1.222,0,0,0,.038-1.69,1.2,1.2,0,0,0-1.728-.022,13.406,13.406,0,0,0-2.556,15.326,1.2,1.2,0,0,0,1.922.311h0A1.21,1.21,0,0,0,305.675,525.974Z" transform="translate(-302.2 -466.199)"/></g><g class="b" transform="translate(86.938 2716.445)"><path class="c" d="M398.313,309.542a5.546,5.546,0,0,0,4.112-5.333v-.014a5.515,5.515,0,0,0-5.515-5.515H396.9a5.544,5.544,0,0,0-5.332,4.112,15.47,15.47,0,0,1-29.823,0,5.544,5.544,0,0,0-5.332-4.112h-.014a5.515,5.515,0,0,0-5.515,5.515v.014a5.546,5.546,0,0,0,4.112,5.333,15.468,15.468,0,0,1,0,29.821,5.544,5.544,0,0,0-4.112,5.332v.012a5.513,5.513,0,0,0,5.515,5.513h.014a5.544,5.544,0,0,0,5.332-4.11,15.47,15.47,0,0,1,29.823,0,5.544,5.544,0,0,0,5.332,4.11h.014a5.515,5.515,0,0,0,5.515-5.513v-.016a5.544,5.544,0,0,0-4.112-5.332,15.468,15.468,0,0,1,0-29.821Z" transform="translate(-342.485 -290.279)"/><path class="c" d="M342.247,253.252h0a1.21,1.21,0,0,0,1.383.228,11.007,11.007,0,0,1,12.54,2.1,1.224,1.224,0,0,0,1.7.038,1.2,1.2,0,0,0,.021-1.716,13.413,13.413,0,0,0-15.323-2.573,1.2,1.2,0,0,0-.316,1.922Z" transform="translate(-335.053 -250)"/><path class="c" d="M303.532,290.332a13.411,13.411,0,0,0,2.525,15.3,1.23,1.23,0,0,0,1.612.15,1.2,1.2,0,0,0,.124-1.806,11.007,11.007,0,0,1-2.115-12.566,1.21,1.21,0,0,0-.226-1.383h0a1.2,1.2,0,0,0-1.92.308Z" transform="translate(-302.202 -282.828)"/><path class="c" d="M578.182,613.617a11.007,11.007,0,0,1-12.544-2.1,1.2,1.2,0,1,0-1.713,1.689,13.41,13.41,0,0,0,15.323,2.572,1.2,1.2,0,0,0,.311-1.922h0A1.21,1.21,0,0,0,578.182,613.617Z" transform="translate(-518.418 -548.749)"/><path class="c" d="M663.674,511.783a1.222,1.222,0,0,0,.038,1.69,11,11,0,0,1,2.1,12.559,1.21,1.21,0,0,0,.228,1.383h0a1.2,1.2,0,0,0,1.922-.311,13.413,13.413,0,0,0-2.566-15.333,1.2,1.2,0,0,0-1.72.012Z" transform="translate(-600.954 -466.246)"/><path class="c" d="M665.814,291.386a11.009,11.009,0,0,1-2.1,12.549,1.222,1.222,0,0,0-.038,1.69,1.2,1.2,0,0,0,1.718.022,13.41,13.41,0,0,0,2.566-15.328,1.2,1.2,0,0,0-1.922-.311h0A1.21,1.21,0,0,0,665.814,291.386Z" transform="translate(-600.954 -282.814)"/><path class="c" d="M565.667,255.583a11.008,11.008,0,0,1,12.549-2.1,1.21,1.21,0,0,0,1.383-.228h0a1.2,1.2,0,0,0-.311-1.922,13.41,13.41,0,0,0-15.328,2.57,1.2,1.2,0,0,0,.022,1.718A1.218,1.218,0,0,0,565.667,255.583Z" transform="translate(-518.447 -250)"/><path class="c" d="M356.111,611.511a11.008,11.008,0,0,1-12.549,2.1,1.21,1.21,0,0,0-1.383.228h0a1.2,1.2,0,0,0,.311,1.922,13.412,13.412,0,0,0,15.333-2.563,1.2,1.2,0,1,0-1.713-1.687Z" transform="translate(-334.995 -548.744)"/><path class="c" d="M305.675,525.974a11.007,11.007,0,0,1,2.1-12.547,1.222,1.222,0,0,0,.038-1.69,1.2,1.2,0,0,0-1.728-.022,13.406,13.406,0,0,0-2.556,15.326,1.2,1.2,0,0,0,1.922.311h0A1.21,1.21,0,0,0,305.675,525.974Z" transform="translate(-302.2 -466.199)"/></g><g class="b" transform="translate(175.938 2716.445)"><path class="c" d="M398.313,309.542a5.546,5.546,0,0,0,4.112-5.333v-.014a5.515,5.515,0,0,0-5.515-5.515H396.9a5.544,5.544,0,0,0-5.332,4.112,15.47,15.47,0,0,1-29.823,0,5.544,5.544,0,0,0-5.332-4.112h-.014a5.515,5.515,0,0,0-5.515,5.515v.014a5.546,5.546,0,0,0,4.112,5.333,15.468,15.468,0,0,1,0,29.821,5.544,5.544,0,0,0-4.112,5.332v.012a5.513,5.513,0,0,0,5.515,5.513h.014a5.544,5.544,0,0,0,5.332-4.11,15.47,15.47,0,0,1,29.823,0,5.544,5.544,0,0,0,5.332,4.11h.014a5.515,5.515,0,0,0,5.515-5.513v-.016a5.544,5.544,0,0,0-4.112-5.332,15.468,15.468,0,0,1,0-29.821Z" transform="translate(-342.485 -290.279)"/><path class="c" d="M342.247,253.252h0a1.21,1.21,0,0,0,1.383.228,11.007,11.007,0,0,1,12.54,2.1,1.224,1.224,0,0,0,1.7.038,1.2,1.2,0,0,0,.021-1.716,13.413,13.413,0,0,0-15.323-2.573,1.2,1.2,0,0,0-.316,1.922Z" transform="translate(-335.053 -250)"/><path class="c" d="M303.532,290.332a13.411,13.411,0,0,0,2.525,15.3,1.23,1.23,0,0,0,1.612.15,1.2,1.2,0,0,0,.124-1.806,11.007,11.007,0,0,1-2.115-12.566,1.21,1.21,0,0,0-.226-1.383h0a1.2,1.2,0,0,0-1.92.308Z" transform="translate(-302.202 -282.828)"/><path class="c" d="M578.182,613.617a11.007,11.007,0,0,1-12.544-2.1,1.2,1.2,0,1,0-1.713,1.689,13.41,13.41,0,0,0,15.323,2.572,1.2,1.2,0,0,0,.311-1.922h0A1.21,1.21,0,0,0,578.182,613.617Z" transform="translate(-518.418 -548.749)"/><path class="c" d="M663.674,511.783a1.222,1.222,0,0,0,.038,1.69,11,11,0,0,1,2.1,12.559,1.21,1.21,0,0,0,.228,1.383h0a1.2,1.2,0,0,0,1.922-.311,13.413,13.413,0,0,0-2.566-15.333,1.2,1.2,0,0,0-1.72.012Z" transform="translate(-600.954 -466.246)"/><path class="c" d="M665.814,291.386a11.009,11.009,0,0,1-2.1,12.549,1.222,1.222,0,0,0-.038,1.69,1.2,1.2,0,0,0,1.718.022,13.41,13.41,0,0,0,2.566-15.328,1.2,1.2,0,0,0-1.922-.311h0A1.21,1.21,0,0,0,665.814,291.386Z" transform="translate(-600.954 -282.814)"/><path class="c" d="M565.667,255.583a11.008,11.008,0,0,1,12.549-2.1,1.21,1.21,0,0,0,1.383-.228h0a1.2,1.2,0,0,0-.311-1.922,13.41,13.41,0,0,0-15.328,2.57,1.2,1.2,0,0,0,.022,1.718A1.218,1.218,0,0,0,565.667,255.583Z" transform="translate(-518.447 -250)"/><path class="c" d="M356.111,611.511a11.008,11.008,0,0,1-12.549,2.1,1.21,1.21,0,0,0-1.383.228h0a1.2,1.2,0,0,0,.311,1.922,13.412,13.412,0,0,0,15.333-2.563,1.2,1.2,0,1,0-1.713-1.687Z" transform="translate(-334.995 -548.744)"/><path class="c" d="M305.675,525.974a11.007,11.007,0,0,1,2.1-12.547,1.222,1.222,0,0,0,.038-1.69,1.2,1.2,0,0,0-1.728-.022,13.406,13.406,0,0,0-2.556,15.326,1.2,1.2,0,0,0,1.922.311h0A1.21,1.21,0,0,0,305.675,525.974Z" transform="translate(-302.2 -466.199)"/></g><g class="b" transform="translate(264.938 2716.445)"><path class="c" d="M398.313,309.542a5.546,5.546,0,0,0,4.112-5.333v-.014a5.515,5.515,0,0,0-5.515-5.515H396.9a5.544,5.544,0,0,0-5.332,4.112,15.47,15.47,0,0,1-29.823,0,5.544,5.544,0,0,0-5.332-4.112h-.014a5.515,5.515,0,0,0-5.515,5.515v.014a5.546,5.546,0,0,0,4.112,5.333,15.468,15.468,0,0,1,0,29.821,5.544,5.544,0,0,0-4.112,5.332v.012a5.513,5.513,0,0,0,5.515,5.513h.014a5.544,5.544,0,0,0,5.332-4.11,15.47,15.47,0,0,1,29.823,0,5.544,5.544,0,0,0,5.332,4.11h.014a5.515,5.515,0,0,0,5.515-5.513v-.016a5.544,5.544,0,0,0-4.112-5.332,15.468,15.468,0,0,1,0-29.821Z" transform="translate(-342.485 -290.279)"/><path class="c" d="M342.247,253.252h0a1.21,1.21,0,0,0,1.383.228,11.007,11.007,0,0,1,12.54,2.1,1.224,1.224,0,0,0,1.7.038,1.2,1.2,0,0,0,.021-1.716,13.413,13.413,0,0,0-15.323-2.573,1.2,1.2,0,0,0-.316,1.922Z" transform="translate(-335.053 -250)"/><path class="c" d="M303.532,290.332a13.411,13.411,0,0,0,2.525,15.3,1.23,1.23,0,0,0,1.612.15,1.2,1.2,0,0,0,.124-1.806,11.007,11.007,0,0,1-2.115-12.566,1.21,1.21,0,0,0-.226-1.383h0a1.2,1.2,0,0,0-1.92.308Z" transform="translate(-302.202 -282.828)"/><path class="c" d="M578.182,613.617a11.007,11.007,0,0,1-12.544-2.1,1.2,1.2,0,1,0-1.713,1.689,13.41,13.41,0,0,0,15.323,2.572,1.2,1.2,0,0,0,.311-1.922h0A1.21,1.21,0,0,0,578.182,613.617Z" transform="translate(-518.418 -548.749)"/><path class="c" d="M663.674,511.783a1.222,1.222,0,0,0,.038,1.69,11,11,0,0,1,2.1,12.559,1.21,1.21,0,0,0,.228,1.383h0a1.2,1.2,0,0,0,1.922-.311,13.413,13.413,0,0,0-2.566-15.333,1.2,1.2,0,0,0-1.72.012Z" transform="translate(-600.954 -466.246)"/><path class="c" d="M665.814,291.386a11.009,11.009,0,0,1-2.1,12.549,1.222,1.222,0,0,0-.038,1.69,1.2,1.2,0,0,0,1.718.022,13.41,13.41,0,0,0,2.566-15.328,1.2,1.2,0,0,0-1.922-.311h0A1.21,1.21,0,0,0,665.814,291.386Z" transform="translate(-600.954 -282.814)"/><path class="c" d="M565.667,255.583a11.008,11.008,0,0,1,12.549-2.1,1.21,1.21,0,0,0,1.383-.228h0a1.2,1.2,0,0,0-.311-1.922,13.41,13.41,0,0,0-15.328,2.57,1.2,1.2,0,0,0,.022,1.718A1.218,1.218,0,0,0,565.667,255.583Z" transform="translate(-518.447 -250)"/><path class="c" d="M356.111,611.511a11.008,11.008,0,0,1-12.549,2.1,1.21,1.21,0,0,0-1.383.228h0a1.2,1.2,0,0,0,.311,1.922,13.412,13.412,0,0,0,15.333-2.563,1.2,1.2,0,1,0-1.713-1.687Z" transform="translate(-334.995 -548.744)"/><path class="c" d="M305.675,525.974a11.007,11.007,0,0,1,2.1-12.547,1.222,1.222,0,0,0,.038-1.69,1.2,1.2,0,0,0-1.728-.022,13.406,13.406,0,0,0-2.556,15.326,1.2,1.2,0,0,0,1.922.311h0A1.21,1.21,0,0,0,305.675,525.974Z" transform="translate(-302.2 -466.199)"/></g><g class="b" transform="translate(-2.063 2805.445)"><path class="c" d="M398.313,309.542a5.546,5.546,0,0,0,4.112-5.333v-.014a5.515,5.515,0,0,0-5.515-5.515H396.9a5.544,5.544,0,0,0-5.332,4.112,15.47,15.47,0,0,1-29.823,0,5.544,5.544,0,0,0-5.332-4.112h-.014a5.515,5.515,0,0,0-5.515,5.515v.014a5.546,5.546,0,0,0,4.112,5.333,15.468,15.468,0,0,1,0,29.821,5.544,5.544,0,0,0-4.112,5.332v.012a5.513,5.513,0,0,0,5.515,5.513h.014a5.544,5.544,0,0,0,5.332-4.11,15.47,15.47,0,0,1,29.823,0,5.544,5.544,0,0,0,5.332,4.11h.014a5.515,5.515,0,0,0,5.515-5.513v-.016a5.544,5.544,0,0,0-4.112-5.332,15.468,15.468,0,0,1,0-29.821Z" transform="translate(-342.485 -290.279)"/><path class="c" d="M342.247,253.252h0a1.21,1.21,0,0,0,1.383.228,11.007,11.007,0,0,1,12.54,2.1,1.224,1.224,0,0,0,1.7.038,1.2,1.2,0,0,0,.021-1.716,13.413,13.413,0,0,0-15.323-2.573,1.2,1.2,0,0,0-.316,1.922Z" transform="translate(-335.053 -250)"/><path class="c" d="M303.532,290.332a13.411,13.411,0,0,0,2.525,15.3,1.23,1.23,0,0,0,1.612.15,1.2,1.2,0,0,0,.124-1.806,11.007,11.007,0,0,1-2.115-12.566,1.21,1.21,0,0,0-.226-1.383h0a1.2,1.2,0,0,0-1.92.308Z" transform="translate(-302.202 -282.828)"/><path class="c" d="M578.182,613.617a11.007,11.007,0,0,1-12.544-2.1,1.2,1.2,0,1,0-1.713,1.689,13.41,13.41,0,0,0,15.323,2.572,1.2,1.2,0,0,0,.311-1.922h0A1.21,1.21,0,0,0,578.182,613.617Z" transform="translate(-518.418 -548.749)"/><path class="c" d="M663.674,511.783a1.222,1.222,0,0,0,.038,1.69,11,11,0,0,1,2.1,12.559,1.21,1.21,0,0,0,.228,1.383h0a1.2,1.2,0,0,0,1.922-.311,13.413,13.413,0,0,0-2.566-15.333,1.2,1.2,0,0,0-1.72.012Z" transform="translate(-600.954 -466.246)"/><path class="c" d="M665.814,291.386a11.009,11.009,0,0,1-2.1,12.549,1.222,1.222,0,0,0-.038,1.69,1.2,1.2,0,0,0,1.718.022,13.41,13.41,0,0,0,2.566-15.328,1.2,1.2,0,0,0-1.922-.311h0A1.21,1.21,0,0,0,665.814,291.386Z" transform="translate(-600.954 -282.814)"/><path class="c" d="M565.667,255.583a11.008,11.008,0,0,1,12.549-2.1,1.21,1.21,0,0,0,1.383-.228h0a1.2,1.2,0,0,0-.311-1.922,13.41,13.41,0,0,0-15.328,2.57,1.2,1.2,0,0,0,.022,1.718A1.218,1.218,0,0,0,565.667,255.583Z" transform="translate(-518.447 -250)"/><path class="c" d="M356.111,611.511a11.008,11.008,0,0,1-12.549,2.1,1.21,1.21,0,0,0-1.383.228h0a1.2,1.2,0,0,0,.311,1.922,13.412,13.412,0,0,0,15.333-2.563,1.2,1.2,0,1,0-1.713-1.687Z" transform="translate(-334.995 -548.744)"/><path class="c" d="M305.675,525.974a11.007,11.007,0,0,1,2.1-12.547,1.222,1.222,0,0,0,.038-1.69,1.2,1.2,0,0,0-1.728-.022,13.406,13.406,0,0,0-2.556,15.326,1.2,1.2,0,0,0,1.922.311h0A1.21,1.21,0,0,0,305.675,525.974Z" transform="translate(-302.2 -466.199)"/></g><g class="b" transform="translate(86.938 2805.445)"><path class="c" d="M398.313,309.542a5.546,5.546,0,0,0,4.112-5.333v-.014a5.515,5.515,0,0,0-5.515-5.515H396.9a5.544,5.544,0,0,0-5.332,4.112,15.47,15.47,0,0,1-29.823,0,5.544,5.544,0,0,0-5.332-4.112h-.014a5.515,5.515,0,0,0-5.515,5.515v.014a5.546,5.546,0,0,0,4.112,5.333,15.468,15.468,0,0,1,0,29.821,5.544,5.544,0,0,0-4.112,5.332v.012a5.513,5.513,0,0,0,5.515,5.513h.014a5.544,5.544,0,0,0,5.332-4.11,15.47,15.47,0,0,1,29.823,0,5.544,5.544,0,0,0,5.332,4.11h.014a5.515,5.515,0,0,0,5.515-5.513v-.016a5.544,5.544,0,0,0-4.112-5.332,15.468,15.468,0,0,1,0-29.821Z" transform="translate(-342.485 -290.279)"/><path class="c" d="M342.247,253.252h0a1.21,1.21,0,0,0,1.383.228,11.007,11.007,0,0,1,12.54,2.1,1.224,1.224,0,0,0,1.7.038,1.2,1.2,0,0,0,.021-1.716,13.413,13.413,0,0,0-15.323-2.573,1.2,1.2,0,0,0-.316,1.922Z" transform="translate(-335.053 -250)"/><path class="c" d="M303.532,290.332a13.411,13.411,0,0,0,2.525,15.3,1.23,1.23,0,0,0,1.612.15,1.2,1.2,0,0,0,.124-1.806,11.007,11.007,0,0,1-2.115-12.566,1.21,1.21,0,0,0-.226-1.383h0a1.2,1.2,0,0,0-1.92.308Z" transform="translate(-302.202 -282.828)"/><path class="c" d="M578.182,613.617a11.007,11.007,0,0,1-12.544-2.1,1.2,1.2,0,1,0-1.713,1.689,13.41,13.41,0,0,0,15.323,2.572,1.2,1.2,0,0,0,.311-1.922h0A1.21,1.21,0,0,0,578.182,613.617Z" transform="translate(-518.418 -548.749)"/><path class="c" d="M663.674,511.783a1.222,1.222,0,0,0,.038,1.69,11,11,0,0,1,2.1,12.559,1.21,1.21,0,0,0,.228,1.383h0a1.2,1.2,0,0,0,1.922-.311,13.413,13.413,0,0,0-2.566-15.333,1.2,1.2,0,0,0-1.72.012Z" transform="translate(-600.954 -466.246)"/><path class="c" d="M665.814,291.386a11.009,11.009,0,0,1-2.1,12.549,1.222,1.222,0,0,0-.038,1.69,1.2,1.2,0,0,0,1.718.022,13.41,13.41,0,0,0,2.566-15.328,1.2,1.2,0,0,0-1.922-.311h0A1.21,1.21,0,0,0,665.814,291.386Z" transform="translate(-600.954 -282.814)"/><path class="c" d="M565.667,255.583a11.008,11.008,0,0,1,12.549-2.1,1.21,1.21,0,0,0,1.383-.228h0a1.2,1.2,0,0,0-.311-1.922,13.41,13.41,0,0,0-15.328,2.57,1.2,1.2,0,0,0,.022,1.718A1.218,1.218,0,0,0,565.667,255.583Z" transform="translate(-518.447 -250)"/><path class="c" d="M356.111,611.511a11.008,11.008,0,0,1-12.549,2.1,1.21,1.21,0,0,0-1.383.228h0a1.2,1.2,0,0,0,.311,1.922,13.412,13.412,0,0,0,15.333-2.563,1.2,1.2,0,1,0-1.713-1.687Z" transform="translate(-334.995 -548.744)"/><path class="c" d="M305.675,525.974a11.007,11.007,0,0,1,2.1-12.547,1.222,1.222,0,0,0,.038-1.69,1.2,1.2,0,0,0-1.728-.022,13.406,13.406,0,0,0-2.556,15.326,1.2,1.2,0,0,0,1.922.311h0A1.21,1.21,0,0,0,305.675,525.974Z" transform="translate(-302.2 -466.199)"/></g><g class="b" transform="translate(175.938 2805.445)"><path class="c" d="M398.313,309.542a5.546,5.546,0,0,0,4.112-5.333v-.014a5.515,5.515,0,0,0-5.515-5.515H396.9a5.544,5.544,0,0,0-5.332,4.112,15.47,15.47,0,0,1-29.823,0,5.544,5.544,0,0,0-5.332-4.112h-.014a5.515,5.515,0,0,0-5.515,5.515v.014a5.546,5.546,0,0,0,4.112,5.333,15.468,15.468,0,0,1,0,29.821,5.544,5.544,0,0,0-4.112,5.332v.012a5.513,5.513,0,0,0,5.515,5.513h.014a5.544,5.544,0,0,0,5.332-4.11,15.47,15.47,0,0,1,29.823,0,5.544,5.544,0,0,0,5.332,4.11h.014a5.515,5.515,0,0,0,5.515-5.513v-.016a5.544,5.544,0,0,0-4.112-5.332,15.468,15.468,0,0,1,0-29.821Z" transform="translate(-342.485 -290.279)"/><path class="c" d="M342.247,253.252h0a1.21,1.21,0,0,0,1.383.228,11.007,11.007,0,0,1,12.54,2.1,1.224,1.224,0,0,0,1.7.038,1.2,1.2,0,0,0,.021-1.716,13.413,13.413,0,0,0-15.323-2.573,1.2,1.2,0,0,0-.316,1.922Z" transform="translate(-335.053 -250)"/><path class="c" d="M303.532,290.332a13.411,13.411,0,0,0,2.525,15.3,1.23,1.23,0,0,0,1.612.15,1.2,1.2,0,0,0,.124-1.806,11.007,11.007,0,0,1-2.115-12.566,1.21,1.21,0,0,0-.226-1.383h0a1.2,1.2,0,0,0-1.92.308Z" transform="translate(-302.202 -282.828)"/><path class="c" d="M578.182,613.617a11.007,11.007,0,0,1-12.544-2.1,1.2,1.2,0,1,0-1.713,1.689,13.41,13.41,0,0,0,15.323,2.572,1.2,1.2,0,0,0,.311-1.922h0A1.21,1.21,0,0,0,578.182,613.617Z" transform="translate(-518.418 -548.749)"/><path class="c" d="M663.674,511.783a1.222,1.222,0,0,0,.038,1.69,11,11,0,0,1,2.1,12.559,1.21,1.21,0,0,0,.228,1.383h0a1.2,1.2,0,0,0,1.922-.311,13.413,13.413,0,0,0-2.566-15.333,1.2,1.2,0,0,0-1.72.012Z" transform="translate(-600.954 -466.246)"/><path class="c" d="M665.814,291.386a11.009,11.009,0,0,1-2.1,12.549,1.222,1.222,0,0,0-.038,1.69,1.2,1.2,0,0,0,1.718.022,13.41,13.41,0,0,0,2.566-15.328,1.2,1.2,0,0,0-1.922-.311h0A1.21,1.21,0,0,0,665.814,291.386Z" transform="translate(-600.954 -282.814)"/><path class="c" d="M565.667,255.583a11.008,11.008,0,0,1,12.549-2.1,1.21,1.21,0,0,0,1.383-.228h0a1.2,1.2,0,0,0-.311-1.922,13.41,13.41,0,0,0-15.328,2.57,1.2,1.2,0,0,0,.022,1.718A1.218,1.218,0,0,0,565.667,255.583Z" transform="translate(-518.447 -250)"/><path class="c" d="M356.111,611.511a11.008,11.008,0,0,1-12.549,2.1,1.21,1.21,0,0,0-1.383.228h0a1.2,1.2,0,0,0,.311,1.922,13.412,13.412,0,0,0,15.333-2.563,1.2,1.2,0,1,0-1.713-1.687Z" transform="translate(-334.995 -548.744)"/><path class="c" d="M305.675,525.974a11.007,11.007,0,0,1,2.1-12.547,1.222,1.222,0,0,0,.038-1.69,1.2,1.2,0,0,0-1.728-.022,13.406,13.406,0,0,0-2.556,15.326,1.2,1.2,0,0,0,1.922.311h0A1.21,1.21,0,0,0,305.675,525.974Z" transform="translate(-302.2 -466.199)"/></g><g class="b" transform="translate(264.938 2805.445)"><path class="c" d="M398.313,309.542a5.546,5.546,0,0,0,4.112-5.333v-.014a5.515,5.515,0,0,0-5.515-5.515H396.9a5.544,5.544,0,0,0-5.332,4.112,15.47,15.47,0,0,1-29.823,0,5.544,5.544,0,0,0-5.332-4.112h-.014a5.515,5.515,0,0,0-5.515,5.515v.014a5.546,5.546,0,0,0,4.112,5.333,15.468,15.468,0,0,1,0,29.821,5.544,5.544,0,0,0-4.112,5.332v.012a5.513,5.513,0,0,0,5.515,5.513h.014a5.544,5.544,0,0,0,5.332-4.11,15.47,15.47,0,0,1,29.823,0,5.544,5.544,0,0,0,5.332,4.11h.014a5.515,5.515,0,0,0,5.515-5.513v-.016a5.544,5.544,0,0,0-4.112-5.332,15.468,15.468,0,0,1,0-29.821Z" transform="translate(-342.485 -290.279)"/><path class="c" d="M342.247,253.252h0a1.21,1.21,0,0,0,1.383.228,11.007,11.007,0,0,1,12.54,2.1,1.224,1.224,0,0,0,1.7.038,1.2,1.2,0,0,0,.021-1.716,13.413,13.413,0,0,0-15.323-2.573,1.2,1.2,0,0,0-.316,1.922Z" transform="translate(-335.053 -250)"/><path class="c" d="M303.532,290.332a13.411,13.411,0,0,0,2.525,15.3,1.23,1.23,0,0,0,1.612.15,1.2,1.2,0,0,0,.124-1.806,11.007,11.007,0,0,1-2.115-12.566,1.21,1.21,0,0,0-.226-1.383h0a1.2,1.2,0,0,0-1.92.308Z" transform="translate(-302.202 -282.828)"/><path class="c" d="M578.182,613.617a11.007,11.007,0,0,1-12.544-2.1,1.2,1.2,0,1,0-1.713,1.689,13.41,13.41,0,0,0,15.323,2.572,1.2,1.2,0,0,0,.311-1.922h0A1.21,1.21,0,0,0,578.182,613.617Z" transform="translate(-518.418 -548.749)"/><path class="c" d="M663.674,511.783a1.222,1.222,0,0,0,.038,1.69,11,11,0,0,1,2.1,12.559,1.21,1.21,0,0,0,.228,1.383h0a1.2,1.2,0,0,0,1.922-.311,13.413,13.413,0,0,0-2.566-15.333,1.2,1.2,0,0,0-1.72.012Z" transform="translate(-600.954 -466.246)"/><path class="c" d="M665.814,291.386a11.009,11.009,0,0,1-2.1,12.549,1.222,1.222,0,0,0-.038,1.69,1.2,1.2,0,0,0,1.718.022,13.41,13.41,0,0,0,2.566-15.328,1.2,1.2,0,0,0-1.922-.311h0A1.21,1.21,0,0,0,665.814,291.386Z" transform="translate(-600.954 -282.814)"/><path class="c" d="M565.667,255.583a11.008,11.008,0,0,1,12.549-2.1,1.21,1.21,0,0,0,1.383-.228h0a1.2,1.2,0,0,0-.311-1.922,13.41,13.41,0,0,0-15.328,2.57,1.2,1.2,0,0,0,.022,1.718A1.218,1.218,0,0,0,565.667,255.583Z" transform="translate(-518.447 -250)"/><path class="c" d="M356.111,611.511a11.008,11.008,0,0,1-12.549,2.1,1.21,1.21,0,0,0-1.383.228h0a1.2,1.2,0,0,0,.311,1.922,13.412,13.412,0,0,0,15.333-2.563,1.2,1.2,0,1,0-1.713-1.687Z" transform="translate(-334.995 -548.744)"/><path class="c" d="M305.675,525.974a11.007,11.007,0,0,1,2.1-12.547,1.222,1.222,0,0,0,.038-1.69,1.2,1.2,0,0,0-1.728-.022,13.406,13.406,0,0,0-2.556,15.326,1.2,1.2,0,0,0,1.922.311h0A1.21,1.21,0,0,0,305.675,525.974Z" transform="translate(-302.2 -466.199)"/></g><g class="b" transform="translate(-2.063 2894.445)"><path class="c" d="M398.313,309.542a5.546,5.546,0,0,0,4.112-5.333v-.014a5.515,5.515,0,0,0-5.515-5.515H396.9a5.544,5.544,0,0,0-5.332,4.112,15.47,15.47,0,0,1-29.823,0,5.544,5.544,0,0,0-5.332-4.112h-.014a5.515,5.515,0,0,0-5.515,5.515v.014a5.546,5.546,0,0,0,4.112,5.333,15.468,15.468,0,0,1,0,29.821,5.544,5.544,0,0,0-4.112,5.332v.012a5.513,5.513,0,0,0,5.515,5.513h.014a5.544,5.544,0,0,0,5.332-4.11,15.47,15.47,0,0,1,29.823,0,5.544,5.544,0,0,0,5.332,4.11h.014a5.515,5.515,0,0,0,5.515-5.513v-.016a5.544,5.544,0,0,0-4.112-5.332,15.468,15.468,0,0,1,0-29.821Z" transform="translate(-342.485 -290.279)"/><path class="c" d="M342.247,253.252h0a1.21,1.21,0,0,0,1.383.228,11.007,11.007,0,0,1,12.54,2.1,1.224,1.224,0,0,0,1.7.038,1.2,1.2,0,0,0,.021-1.716,13.413,13.413,0,0,0-15.323-2.573,1.2,1.2,0,0,0-.316,1.922Z" transform="translate(-335.053 -250)"/><path class="c" d="M303.532,290.332a13.411,13.411,0,0,0,2.525,15.3,1.23,1.23,0,0,0,1.612.15,1.2,1.2,0,0,0,.124-1.806,11.007,11.007,0,0,1-2.115-12.566,1.21,1.21,0,0,0-.226-1.383h0a1.2,1.2,0,0,0-1.92.308Z" transform="translate(-302.202 -282.828)"/><path class="c" d="M578.182,613.617a11.007,11.007,0,0,1-12.544-2.1,1.2,1.2,0,1,0-1.713,1.689,13.41,13.41,0,0,0,15.323,2.572,1.2,1.2,0,0,0,.311-1.922h0A1.21,1.21,0,0,0,578.182,613.617Z" transform="translate(-518.418 -548.749)"/><path class="c" d="M663.674,511.783a1.222,1.222,0,0,0,.038,1.69,11,11,0,0,1,2.1,12.559,1.21,1.21,0,0,0,.228,1.383h0a1.2,1.2,0,0,0,1.922-.311,13.413,13.413,0,0,0-2.566-15.333,1.2,1.2,0,0,0-1.72.012Z" transform="translate(-600.954 -466.246)"/><path class="c" d="M665.814,291.386a11.009,11.009,0,0,1-2.1,12.549,1.222,1.222,0,0,0-.038,1.69,1.2,1.2,0,0,0,1.718.022,13.41,13.41,0,0,0,2.566-15.328,1.2,1.2,0,0,0-1.922-.311h0A1.21,1.21,0,0,0,665.814,291.386Z" transform="translate(-600.954 -282.814)"/><path class="c" d="M565.667,255.583a11.008,11.008,0,0,1,12.549-2.1,1.21,1.21,0,0,0,1.383-.228h0a1.2,1.2,0,0,0-.311-1.922,13.41,13.41,0,0,0-15.328,2.57,1.2,1.2,0,0,0,.022,1.718A1.218,1.218,0,0,0,565.667,255.583Z" transform="translate(-518.447 -250)"/><path class="c" d="M356.111,611.511a11.008,11.008,0,0,1-12.549,2.1,1.21,1.21,0,0,0-1.383.228h0a1.2,1.2,0,0,0,.311,1.922,13.412,13.412,0,0,0,15.333-2.563,1.2,1.2,0,1,0-1.713-1.687Z" transform="translate(-334.995 -548.744)"/><path class="c" d="M305.675,525.974a11.007,11.007,0,0,1,2.1-12.547,1.222,1.222,0,0,0,.038-1.69,1.2,1.2,0,0,0-1.728-.022,13.406,13.406,0,0,0-2.556,15.326,1.2,1.2,0,0,0,1.922.311h0A1.21,1.21,0,0,0,305.675,525.974Z" transform="translate(-302.2 -466.199)"/></g><g class="b" transform="translate(86.938 2894.445)"><path class="c" d="M398.313,309.542a5.546,5.546,0,0,0,4.112-5.333v-.014a5.515,5.515,0,0,0-5.515-5.515H396.9a5.544,5.544,0,0,0-5.332,4.112,15.47,15.47,0,0,1-29.823,0,5.544,5.544,0,0,0-5.332-4.112h-.014a5.515,5.515,0,0,0-5.515,5.515v.014a5.546,5.546,0,0,0,4.112,5.333,15.468,15.468,0,0,1,0,29.821,5.544,5.544,0,0,0-4.112,5.332v.012a5.513,5.513,0,0,0,5.515,5.513h.014a5.544,5.544,0,0,0,5.332-4.11,15.47,15.47,0,0,1,29.823,0,5.544,5.544,0,0,0,5.332,4.11h.014a5.515,5.515,0,0,0,5.515-5.513v-.016a5.544,5.544,0,0,0-4.112-5.332,15.468,15.468,0,0,1,0-29.821Z" transform="translate(-342.485 -290.279)"/><path class="c" d="M342.247,253.252h0a1.21,1.21,0,0,0,1.383.228,11.007,11.007,0,0,1,12.54,2.1,1.224,1.224,0,0,0,1.7.038,1.2,1.2,0,0,0,.021-1.716,13.413,13.413,0,0,0-15.323-2.573,1.2,1.2,0,0,0-.316,1.922Z" transform="translate(-335.053 -250)"/><path class="c" d="M303.532,290.332a13.411,13.411,0,0,0,2.525,15.3,1.23,1.23,0,0,0,1.612.15,1.2,1.2,0,0,0,.124-1.806,11.007,11.007,0,0,1-2.115-12.566,1.21,1.21,0,0,0-.226-1.383h0a1.2,1.2,0,0,0-1.92.308Z" transform="translate(-302.202 -282.828)"/><path class="c" d="M578.182,613.617a11.007,11.007,0,0,1-12.544-2.1,1.2,1.2,0,1,0-1.713,1.689,13.41,13.41,0,0,0,15.323,2.572,1.2,1.2,0,0,0,.311-1.922h0A1.21,1.21,0,0,0,578.182,613.617Z" transform="translate(-518.418 -548.749)"/><path class="c" d="M663.674,511.783a1.222,1.222,0,0,0,.038,1.69,11,11,0,0,1,2.1,12.559,1.21,1.21,0,0,0,.228,1.383h0a1.2,1.2,0,0,0,1.922-.311,13.413,13.413,0,0,0-2.566-15.333,1.2,1.2,0,0,0-1.72.012Z" transform="translate(-600.954 -466.246)"/><path class="c" d="M665.814,291.386a11.009,11.009,0,0,1-2.1,12.549,1.222,1.222,0,0,0-.038,1.69,1.2,1.2,0,0,0,1.718.022,13.41,13.41,0,0,0,2.566-15.328,1.2,1.2,0,0,0-1.922-.311h0A1.21,1.21,0,0,0,665.814,291.386Z" transform="translate(-600.954 -282.814)"/><path class="c" d="M565.667,255.583a11.008,11.008,0,0,1,12.549-2.1,1.21,1.21,0,0,0,1.383-.228h0a1.2,1.2,0,0,0-.311-1.922,13.41,13.41,0,0,0-15.328,2.57,1.2,1.2,0,0,0,.022,1.718A1.218,1.218,0,0,0,565.667,255.583Z" transform="translate(-518.447 -250)"/><path class="c" d="M356.111,611.511a11.008,11.008,0,0,1-12.549,2.1,1.21,1.21,0,0,0-1.383.228h0a1.2,1.2,0,0,0,.311,1.922,13.412,13.412,0,0,0,15.333-2.563,1.2,1.2,0,1,0-1.713-1.687Z" transform="translate(-334.995 -548.744)"/><path class="c" d="M305.675,525.974a11.007,11.007,0,0,1,2.1-12.547,1.222,1.222,0,0,0,.038-1.69,1.2,1.2,0,0,0-1.728-.022,13.406,13.406,0,0,0-2.556,15.326,1.2,1.2,0,0,0,1.922.311h0A1.21,1.21,0,0,0,305.675,525.974Z" transform="translate(-302.2 -466.199)"/></g><g class="b" transform="translate(175.938 2894.445)"><path class="c" d="M398.313,309.542a5.546,5.546,0,0,0,4.112-5.333v-.014a5.515,5.515,0,0,0-5.515-5.515H396.9a5.544,5.544,0,0,0-5.332,4.112,15.47,15.47,0,0,1-29.823,0,5.544,5.544,0,0,0-5.332-4.112h-.014a5.515,5.515,0,0,0-5.515,5.515v.014a5.546,5.546,0,0,0,4.112,5.333,15.468,15.468,0,0,1,0,29.821,5.544,5.544,0,0,0-4.112,5.332v.012a5.513,5.513,0,0,0,5.515,5.513h.014a5.544,5.544,0,0,0,5.332-4.11,15.47,15.47,0,0,1,29.823,0,5.544,5.544,0,0,0,5.332,4.11h.014a5.515,5.515,0,0,0,5.515-5.513v-.016a5.544,5.544,0,0,0-4.112-5.332,15.468,15.468,0,0,1,0-29.821Z" transform="translate(-342.485 -290.279)"/><path class="c" d="M342.247,253.252h0a1.21,1.21,0,0,0,1.383.228,11.007,11.007,0,0,1,12.54,2.1,1.224,1.224,0,0,0,1.7.038,1.2,1.2,0,0,0,.021-1.716,13.413,13.413,0,0,0-15.323-2.573,1.2,1.2,0,0,0-.316,1.922Z" transform="translate(-335.053 -250)"/><path class="c" d="M303.532,290.332a13.411,13.411,0,0,0,2.525,15.3,1.23,1.23,0,0,0,1.612.15,1.2,1.2,0,0,0,.124-1.806,11.007,11.007,0,0,1-2.115-12.566,1.21,1.21,0,0,0-.226-1.383h0a1.2,1.2,0,0,0-1.92.308Z" transform="translate(-302.202 -282.828)"/><path class="c" d="M578.182,613.617a11.007,11.007,0,0,1-12.544-2.1,1.2,1.2,0,1,0-1.713,1.689,13.41,13.41,0,0,0,15.323,2.572,1.2,1.2,0,0,0,.311-1.922h0A1.21,1.21,0,0,0,578.182,613.617Z" transform="translate(-518.418 -548.749)"/><path class="c" d="M663.674,511.783a1.222,1.222,0,0,0,.038,1.69,11,11,0,0,1,2.1,12.559,1.21,1.21,0,0,0,.228,1.383h0a1.2,1.2,0,0,0,1.922-.311,13.413,13.413,0,0,0-2.566-15.333,1.2,1.2,0,0,0-1.72.012Z" transform="translate(-600.954 -466.246)"/><path class="c" d="M665.814,291.386a11.009,11.009,0,0,1-2.1,12.549,1.222,1.222,0,0,0-.038,1.69,1.2,1.2,0,0,0,1.718.022,13.41,13.41,0,0,0,2.566-15.328,1.2,1.2,0,0,0-1.922-.311h0A1.21,1.21,0,0,0,665.814,291.386Z" transform="translate(-600.954 -282.814)"/><path class="c" d="M565.667,255.583a11.008,11.008,0,0,1,12.549-2.1,1.21,1.21,0,0,0,1.383-.228h0a1.2,1.2,0,0,0-.311-1.922,13.41,13.41,0,0,0-15.328,2.57,1.2,1.2,0,0,0,.022,1.718A1.218,1.218,0,0,0,565.667,255.583Z" transform="translate(-518.447 -250)"/><path class="c" d="M356.111,611.511a11.008,11.008,0,0,1-12.549,2.1,1.21,1.21,0,0,0-1.383.228h0a1.2,1.2,0,0,0,.311,1.922,13.412,13.412,0,0,0,15.333-2.563,1.2,1.2,0,1,0-1.713-1.687Z" transform="translate(-334.995 -548.744)"/><path class="c" d="M305.675,525.974a11.007,11.007,0,0,1,2.1-12.547,1.222,1.222,0,0,0,.038-1.69,1.2,1.2,0,0,0-1.728-.022,13.406,13.406,0,0,0-2.556,15.326,1.2,1.2,0,0,0,1.922.311h0A1.21,1.21,0,0,0,305.675,525.974Z" transform="translate(-302.2 -466.199)"/></g><g class="b" transform="translate(264.938 2894.445)"><path class="c" d="M398.313,309.542a5.546,5.546,0,0,0,4.112-5.333v-.014a5.515,5.515,0,0,0-5.515-5.515H396.9a5.544,5.544,0,0,0-5.332,4.112,15.47,15.47,0,0,1-29.823,0,5.544,5.544,0,0,0-5.332-4.112h-.014a5.515,5.515,0,0,0-5.515,5.515v.014a5.546,5.546,0,0,0,4.112,5.333,15.468,15.468,0,0,1,0,29.821,5.544,5.544,0,0,0-4.112,5.332v.012a5.513,5.513,0,0,0,5.515,5.513h.014a5.544,5.544,0,0,0,5.332-4.11,15.47,15.47,0,0,1,29.823,0,5.544,5.544,0,0,0,5.332,4.11h.014a5.515,5.515,0,0,0,5.515-5.513v-.016a5.544,5.544,0,0,0-4.112-5.332,15.468,15.468,0,0,1,0-29.821Z" transform="translate(-342.485 -290.279)"/><path class="c" d="M342.247,253.252h0a1.21,1.21,0,0,0,1.383.228,11.007,11.007,0,0,1,12.54,2.1,1.224,1.224,0,0,0,1.7.038,1.2,1.2,0,0,0,.021-1.716,13.413,13.413,0,0,0-15.323-2.573,1.2,1.2,0,0,0-.316,1.922Z" transform="translate(-335.053 -250)"/><path class="c" d="M303.532,290.332a13.411,13.411,0,0,0,2.525,15.3,1.23,1.23,0,0,0,1.612.15,1.2,1.2,0,0,0,.124-1.806,11.007,11.007,0,0,1-2.115-12.566,1.21,1.21,0,0,0-.226-1.383h0a1.2,1.2,0,0,0-1.92.308Z" transform="translate(-302.202 -282.828)"/><path class="c" d="M578.182,613.617a11.007,11.007,0,0,1-12.544-2.1,1.2,1.2,0,1,0-1.713,1.689,13.41,13.41,0,0,0,15.323,2.572,1.2,1.2,0,0,0,.311-1.922h0A1.21,1.21,0,0,0,578.182,613.617Z" transform="translate(-518.418 -548.749)"/><path class="c" d="M663.674,511.783a1.222,1.222,0,0,0,.038,1.69,11,11,0,0,1,2.1,12.559,1.21,1.21,0,0,0,.228,1.383h0a1.2,1.2,0,0,0,1.922-.311,13.413,13.413,0,0,0-2.566-15.333,1.2,1.2,0,0,0-1.72.012Z" transform="translate(-600.954 -466.246)"/><path class="c" d="M665.814,291.386a11.009,11.009,0,0,1-2.1,12.549,1.222,1.222,0,0,0-.038,1.69,1.2,1.2,0,0,0,1.718.022,13.41,13.41,0,0,0,2.566-15.328,1.2,1.2,0,0,0-1.922-.311h0A1.21,1.21,0,0,0,665.814,291.386Z" transform="translate(-600.954 -282.814)"/><path class="c" d="M565.667,255.583a11.008,11.008,0,0,1,12.549-2.1,1.21,1.21,0,0,0,1.383-.228h0a1.2,1.2,0,0,0-.311-1.922,13.41,13.41,0,0,0-15.328,2.57,1.2,1.2,0,0,0,.022,1.718A1.218,1.218,0,0,0,565.667,255.583Z" transform="translate(-518.447 -250)"/><path class="c" d="M356.111,611.511a11.008,11.008,0,0,1-12.549,2.1,1.21,1.21,0,0,0-1.383.228h0a1.2,1.2,0,0,0,.311,1.922,13.412,13.412,0,0,0,15.333-2.563,1.2,1.2,0,1,0-1.713-1.687Z" transform="translate(-334.995 -548.744)"/><path class="c" d="M305.675,525.974a11.007,11.007,0,0,1,2.1-12.547,1.222,1.222,0,0,0,.038-1.69,1.2,1.2,0,0,0-1.728-.022,13.406,13.406,0,0,0-2.556,15.326,1.2,1.2,0,0,0,1.922.311h0A1.21,1.21,0,0,0,305.675,525.974Z" transform="translate(-302.2 -466.199)"/></g><g class="b" transform="translate(-2.063 2983.445)"><path class="c" d="M398.313,309.542a5.546,5.546,0,0,0,4.112-5.333v-.014a5.515,5.515,0,0,0-5.515-5.515H396.9a5.544,5.544,0,0,0-5.332,4.112,15.47,15.47,0,0,1-29.823,0,5.544,5.544,0,0,0-5.332-4.112h-.014a5.515,5.515,0,0,0-5.515,5.515v.014a5.546,5.546,0,0,0,4.112,5.333,15.468,15.468,0,0,1,0,29.821,5.544,5.544,0,0,0-4.112,5.332v.012a5.513,5.513,0,0,0,5.515,5.513h.014a5.544,5.544,0,0,0,5.332-4.11,15.47,15.47,0,0,1,29.823,0,5.544,5.544,0,0,0,5.332,4.11h.014a5.515,5.515,0,0,0,5.515-5.513v-.016a5.544,5.544,0,0,0-4.112-5.332,15.468,15.468,0,0,1,0-29.821Z" transform="translate(-342.485 -290.279)"/><path class="c" d="M342.247,253.252h0a1.21,1.21,0,0,0,1.383.228,11.007,11.007,0,0,1,12.54,2.1,1.224,1.224,0,0,0,1.7.038,1.2,1.2,0,0,0,.021-1.716,13.413,13.413,0,0,0-15.323-2.573,1.2,1.2,0,0,0-.316,1.922Z" transform="translate(-335.053 -250)"/><path class="c" d="M303.532,290.332a13.411,13.411,0,0,0,2.525,15.3,1.23,1.23,0,0,0,1.612.15,1.2,1.2,0,0,0,.124-1.806,11.007,11.007,0,0,1-2.115-12.566,1.21,1.21,0,0,0-.226-1.383h0a1.2,1.2,0,0,0-1.92.308Z" transform="translate(-302.202 -282.828)"/><path class="c" d="M578.182,613.617a11.007,11.007,0,0,1-12.544-2.1,1.2,1.2,0,1,0-1.713,1.689,13.41,13.41,0,0,0,15.323,2.572,1.2,1.2,0,0,0,.311-1.922h0A1.21,1.21,0,0,0,578.182,613.617Z" transform="translate(-518.418 -548.749)"/><path class="c" d="M663.674,511.783a1.222,1.222,0,0,0,.038,1.69,11,11,0,0,1,2.1,12.559,1.21,1.21,0,0,0,.228,1.383h0a1.2,1.2,0,0,0,1.922-.311,13.413,13.413,0,0,0-2.566-15.333,1.2,1.2,0,0,0-1.72.012Z" transform="translate(-600.954 -466.246)"/><path class="c" d="M665.814,291.386a11.009,11.009,0,0,1-2.1,12.549,1.222,1.222,0,0,0-.038,1.69,1.2,1.2,0,0,0,1.718.022,13.41,13.41,0,0,0,2.566-15.328,1.2,1.2,0,0,0-1.922-.311h0A1.21,1.21,0,0,0,665.814,291.386Z" transform="translate(-600.954 -282.814)"/><path class="c" d="M565.667,255.583a11.008,11.008,0,0,1,12.549-2.1,1.21,1.21,0,0,0,1.383-.228h0a1.2,1.2,0,0,0-.311-1.922,13.41,13.41,0,0,0-15.328,2.57,1.2,1.2,0,0,0,.022,1.718A1.218,1.218,0,0,0,565.667,255.583Z" transform="translate(-518.447 -250)"/><path class="c" d="M356.111,611.511a11.008,11.008,0,0,1-12.549,2.1,1.21,1.21,0,0,0-1.383.228h0a1.2,1.2,0,0,0,.311,1.922,13.412,13.412,0,0,0,15.333-2.563,1.2,1.2,0,1,0-1.713-1.687Z" transform="translate(-334.995 -548.744)"/><path class="c" d="M305.675,525.974a11.007,11.007,0,0,1,2.1-12.547,1.222,1.222,0,0,0,.038-1.69,1.2,1.2,0,0,0-1.728-.022,13.406,13.406,0,0,0-2.556,15.326,1.2,1.2,0,0,0,1.922.311h0A1.21,1.21,0,0,0,305.675,525.974Z" transform="translate(-302.2 -466.199)"/></g><g class="b" transform="translate(86.938 2983.445)"><path class="c" d="M398.313,309.542a5.546,5.546,0,0,0,4.112-5.333v-.014a5.515,5.515,0,0,0-5.515-5.515H396.9a5.544,5.544,0,0,0-5.332,4.112,15.47,15.47,0,0,1-29.823,0,5.544,5.544,0,0,0-5.332-4.112h-.014a5.515,5.515,0,0,0-5.515,5.515v.014a5.546,5.546,0,0,0,4.112,5.333,15.468,15.468,0,0,1,0,29.821,5.544,5.544,0,0,0-4.112,5.332v.012a5.513,5.513,0,0,0,5.515,5.513h.014a5.544,5.544,0,0,0,5.332-4.11,15.47,15.47,0,0,1,29.823,0,5.544,5.544,0,0,0,5.332,4.11h.014a5.515,5.515,0,0,0,5.515-5.513v-.016a5.544,5.544,0,0,0-4.112-5.332,15.468,15.468,0,0,1,0-29.821Z" transform="translate(-342.485 -290.279)"/><path class="c" d="M342.247,253.252h0a1.21,1.21,0,0,0,1.383.228,11.007,11.007,0,0,1,12.54,2.1,1.224,1.224,0,0,0,1.7.038,1.2,1.2,0,0,0,.021-1.716,13.413,13.413,0,0,0-15.323-2.573,1.2,1.2,0,0,0-.316,1.922Z" transform="translate(-335.053 -250)"/><path class="c" d="M303.532,290.332a13.411,13.411,0,0,0,2.525,15.3,1.23,1.23,0,0,0,1.612.15,1.2,1.2,0,0,0,.124-1.806,11.007,11.007,0,0,1-2.115-12.566,1.21,1.21,0,0,0-.226-1.383h0a1.2,1.2,0,0,0-1.92.308Z" transform="translate(-302.202 -282.828)"/><path class="c" d="M578.182,613.617a11.007,11.007,0,0,1-12.544-2.1,1.2,1.2,0,1,0-1.713,1.689,13.41,13.41,0,0,0,15.323,2.572,1.2,1.2,0,0,0,.311-1.922h0A1.21,1.21,0,0,0,578.182,613.617Z" transform="translate(-518.418 -548.749)"/><path class="c" d="M663.674,511.783a1.222,1.222,0,0,0,.038,1.69,11,11,0,0,1,2.1,12.559,1.21,1.21,0,0,0,.228,1.383h0a1.2,1.2,0,0,0,1.922-.311,13.413,13.413,0,0,0-2.566-15.333,1.2,1.2,0,0,0-1.72.012Z" transform="translate(-600.954 -466.246)"/><path class="c" d="M665.814,291.386a11.009,11.009,0,0,1-2.1,12.549,1.222,1.222,0,0,0-.038,1.69,1.2,1.2,0,0,0,1.718.022,13.41,13.41,0,0,0,2.566-15.328,1.2,1.2,0,0,0-1.922-.311h0A1.21,1.21,0,0,0,665.814,291.386Z" transform="translate(-600.954 -282.814)"/><path class="c" d="M565.667,255.583a11.008,11.008,0,0,1,12.549-2.1,1.21,1.21,0,0,0,1.383-.228h0a1.2,1.2,0,0,0-.311-1.922,13.41,13.41,0,0,0-15.328,2.57,1.2,1.2,0,0,0,.022,1.718A1.218,1.218,0,0,0,565.667,255.583Z" transform="translate(-518.447 -250)"/><path class="c" d="M356.111,611.511a11.008,11.008,0,0,1-12.549,2.1,1.21,1.21,0,0,0-1.383.228h0a1.2,1.2,0,0,0,.311,1.922,13.412,13.412,0,0,0,15.333-2.563,1.2,1.2,0,1,0-1.713-1.687Z" transform="translate(-334.995 -548.744)"/><path class="c" d="M305.675,525.974a11.007,11.007,0,0,1,2.1-12.547,1.222,1.222,0,0,0,.038-1.69,1.2,1.2,0,0,0-1.728-.022,13.406,13.406,0,0,0-2.556,15.326,1.2,1.2,0,0,0,1.922.311h0A1.21,1.21,0,0,0,305.675,525.974Z" transform="translate(-302.2 -466.199)"/></g><g class="b" transform="translate(175.938 2983.445)"><path class="c" d="M398.313,309.542a5.546,5.546,0,0,0,4.112-5.333v-.014a5.515,5.515,0,0,0-5.515-5.515H396.9a5.544,5.544,0,0,0-5.332,4.112,15.47,15.47,0,0,1-29.823,0,5.544,5.544,0,0,0-5.332-4.112h-.014a5.515,5.515,0,0,0-5.515,5.515v.014a5.546,5.546,0,0,0,4.112,5.333,15.468,15.468,0,0,1,0,29.821,5.544,5.544,0,0,0-4.112,5.332v.012a5.513,5.513,0,0,0,5.515,5.513h.014a5.544,5.544,0,0,0,5.332-4.11,15.47,15.47,0,0,1,29.823,0,5.544,5.544,0,0,0,5.332,4.11h.014a5.515,5.515,0,0,0,5.515-5.513v-.016a5.544,5.544,0,0,0-4.112-5.332,15.468,15.468,0,0,1,0-29.821Z" transform="translate(-342.485 -290.279)"/><path class="c" d="M342.247,253.252h0a1.21,1.21,0,0,0,1.383.228,11.007,11.007,0,0,1,12.54,2.1,1.224,1.224,0,0,0,1.7.038,1.2,1.2,0,0,0,.021-1.716,13.413,13.413,0,0,0-15.323-2.573,1.2,1.2,0,0,0-.316,1.922Z" transform="translate(-335.053 -250)"/><path class="c" d="M303.532,290.332a13.411,13.411,0,0,0,2.525,15.3,1.23,1.23,0,0,0,1.612.15,1.2,1.2,0,0,0,.124-1.806,11.007,11.007,0,0,1-2.115-12.566,1.21,1.21,0,0,0-.226-1.383h0a1.2,1.2,0,0,0-1.92.308Z" transform="translate(-302.202 -282.828)"/><path class="c" d="M578.182,613.617a11.007,11.007,0,0,1-12.544-2.1,1.2,1.2,0,1,0-1.713,1.689,13.41,13.41,0,0,0,15.323,2.572,1.2,1.2,0,0,0,.311-1.922h0A1.21,1.21,0,0,0,578.182,613.617Z" transform="translate(-518.418 -548.749)"/><path class="c" d="M663.674,511.783a1.222,1.222,0,0,0,.038,1.69,11,11,0,0,1,2.1,12.559,1.21,1.21,0,0,0,.228,1.383h0a1.2,1.2,0,0,0,1.922-.311,13.413,13.413,0,0,0-2.566-15.333,1.2,1.2,0,0,0-1.72.012Z" transform="translate(-600.954 -466.246)"/><path class="c" d="M665.814,291.386a11.009,11.009,0,0,1-2.1,12.549,1.222,1.222,0,0,0-.038,1.69,1.2,1.2,0,0,0,1.718.022,13.41,13.41,0,0,0,2.566-15.328,1.2,1.2,0,0,0-1.922-.311h0A1.21,1.21,0,0,0,665.814,291.386Z" transform="translate(-600.954 -282.814)"/><path class="c" d="M565.667,255.583a11.008,11.008,0,0,1,12.549-2.1,1.21,1.21,0,0,0,1.383-.228h0a1.2,1.2,0,0,0-.311-1.922,13.41,13.41,0,0,0-15.328,2.57,1.2,1.2,0,0,0,.022,1.718A1.218,1.218,0,0,0,565.667,255.583Z" transform="translate(-518.447 -250)"/><path class="c" d="M356.111,611.511a11.008,11.008,0,0,1-12.549,2.1,1.21,1.21,0,0,0-1.383.228h0a1.2,1.2,0,0,0,.311,1.922,13.412,13.412,0,0,0,15.333-2.563,1.2,1.2,0,1,0-1.713-1.687Z" transform="translate(-334.995 -548.744)"/><path class="c" d="M305.675,525.974a11.007,11.007,0,0,1,2.1-12.547,1.222,1.222,0,0,0,.038-1.69,1.2,1.2,0,0,0-1.728-.022,13.406,13.406,0,0,0-2.556,15.326,1.2,1.2,0,0,0,1.922.311h0A1.21,1.21,0,0,0,305.675,525.974Z" transform="translate(-302.2 -466.199)"/></g><g class="b" transform="translate(264.938 2983.445)"><path class="c" d="M398.313,309.542a5.546,5.546,0,0,0,4.112-5.333v-.014a5.515,5.515,0,0,0-5.515-5.515H396.9a5.544,5.544,0,0,0-5.332,4.112,15.47,15.47,0,0,1-29.823,0,5.544,5.544,0,0,0-5.332-4.112h-.014a5.515,5.515,0,0,0-5.515,5.515v.014a5.546,5.546,0,0,0,4.112,5.333,15.468,15.468,0,0,1,0,29.821,5.544,5.544,0,0,0-4.112,5.332v.012a5.513,5.513,0,0,0,5.515,5.513h.014a5.544,5.544,0,0,0,5.332-4.11,15.47,15.47,0,0,1,29.823,0,5.544,5.544,0,0,0,5.332,4.11h.014a5.515,5.515,0,0,0,5.515-5.513v-.016a5.544,5.544,0,0,0-4.112-5.332,15.468,15.468,0,0,1,0-29.821Z" transform="translate(-342.485 -290.279)"/><path class="c" d="M342.247,253.252h0a1.21,1.21,0,0,0,1.383.228,11.007,11.007,0,0,1,12.54,2.1,1.224,1.224,0,0,0,1.7.038,1.2,1.2,0,0,0,.021-1.716,13.413,13.413,0,0,0-15.323-2.573,1.2,1.2,0,0,0-.316,1.922Z" transform="translate(-335.053 -250)"/><path class="c" d="M303.532,290.332a13.411,13.411,0,0,0,2.525,15.3,1.23,1.23,0,0,0,1.612.15,1.2,1.2,0,0,0,.124-1.806,11.007,11.007,0,0,1-2.115-12.566,1.21,1.21,0,0,0-.226-1.383h0a1.2,1.2,0,0,0-1.92.308Z" transform="translate(-302.202 -282.828)"/><path class="c" d="M578.182,613.617a11.007,11.007,0,0,1-12.544-2.1,1.2,1.2,0,1,0-1.713,1.689,13.41,13.41,0,0,0,15.323,2.572,1.2,1.2,0,0,0,.311-1.922h0A1.21,1.21,0,0,0,578.182,613.617Z" transform="translate(-518.418 -548.749)"/><path class="c" d="M663.674,511.783a1.222,1.222,0,0,0,.038,1.69,11,11,0,0,1,2.1,12.559,1.21,1.21,0,0,0,.228,1.383h0a1.2,1.2,0,0,0,1.922-.311,13.413,13.413,0,0,0-2.566-15.333,1.2,1.2,0,0,0-1.72.012Z" transform="translate(-600.954 -466.246)"/><path class="c" d="M665.814,291.386a11.009,11.009,0,0,1-2.1,12.549,1.222,1.222,0,0,0-.038,1.69,1.2,1.2,0,0,0,1.718.022,13.41,13.41,0,0,0,2.566-15.328,1.2,1.2,0,0,0-1.922-.311h0A1.21,1.21,0,0,0,665.814,291.386Z" transform="translate(-600.954 -282.814)"/><path class="c" d="M565.667,255.583a11.008,11.008,0,0,1,12.549-2.1,1.21,1.21,0,0,0,1.383-.228h0a1.2,1.2,0,0,0-.311-1.922,13.41,13.41,0,0,0-15.328,2.57,1.2,1.2,0,0,0,.022,1.718A1.218,1.218,0,0,0,565.667,255.583Z" transform="translate(-518.447 -250)"/><path class="c" d="M356.111,611.511a11.008,11.008,0,0,1-12.549,2.1,1.21,1.21,0,0,0-1.383.228h0a1.2,1.2,0,0,0,.311,1.922,13.412,13.412,0,0,0,15.333-2.563,1.2,1.2,0,1,0-1.713-1.687Z" transform="translate(-334.995 -548.744)"/><path class="c" d="M305.675,525.974a11.007,11.007,0,0,1,2.1-12.547,1.222,1.222,0,0,0,.038-1.69,1.2,1.2,0,0,0-1.728-.022,13.406,13.406,0,0,0-2.556,15.326,1.2,1.2,0,0,0,1.922.311h0A1.21,1.21,0,0,0,305.675,525.974Z" transform="translate(-302.2 -466.199)"/></g><g class="b" transform="translate(-2.063 3072.445)"><path class="c" d="M398.313,309.542a5.546,5.546,0,0,0,4.112-5.333v-.014a5.515,5.515,0,0,0-5.515-5.515H396.9a5.544,5.544,0,0,0-5.332,4.112,15.47,15.47,0,0,1-29.823,0,5.544,5.544,0,0,0-5.332-4.112h-.014a5.515,5.515,0,0,0-5.515,5.515v.014a5.546,5.546,0,0,0,4.112,5.333,15.468,15.468,0,0,1,0,29.821,5.544,5.544,0,0,0-4.112,5.332v.012a5.513,5.513,0,0,0,5.515,5.513h.014a5.544,5.544,0,0,0,5.332-4.11,15.47,15.47,0,0,1,29.823,0,5.544,5.544,0,0,0,5.332,4.11h.014a5.515,5.515,0,0,0,5.515-5.513v-.016a5.544,5.544,0,0,0-4.112-5.332,15.468,15.468,0,0,1,0-29.821Z" transform="translate(-342.485 -290.279)"/><path class="c" d="M342.247,253.252h0a1.21,1.21,0,0,0,1.383.228,11.007,11.007,0,0,1,12.54,2.1,1.224,1.224,0,0,0,1.7.038,1.2,1.2,0,0,0,.021-1.716,13.413,13.413,0,0,0-15.323-2.573,1.2,1.2,0,0,0-.316,1.922Z" transform="translate(-335.053 -250)"/><path class="c" d="M303.532,290.332a13.411,13.411,0,0,0,2.525,15.3,1.23,1.23,0,0,0,1.612.15,1.2,1.2,0,0,0,.124-1.806,11.007,11.007,0,0,1-2.115-12.566,1.21,1.21,0,0,0-.226-1.383h0a1.2,1.2,0,0,0-1.92.308Z" transform="translate(-302.202 -282.828)"/><path class="c" d="M578.182,613.617a11.007,11.007,0,0,1-12.544-2.1,1.2,1.2,0,1,0-1.713,1.689,13.41,13.41,0,0,0,15.323,2.572,1.2,1.2,0,0,0,.311-1.922h0A1.21,1.21,0,0,0,578.182,613.617Z" transform="translate(-518.418 -548.749)"/><path class="c" d="M663.674,511.783a1.222,1.222,0,0,0,.038,1.69,11,11,0,0,1,2.1,12.559,1.21,1.21,0,0,0,.228,1.383h0a1.2,1.2,0,0,0,1.922-.311,13.413,13.413,0,0,0-2.566-15.333,1.2,1.2,0,0,0-1.72.012Z" transform="translate(-600.954 -466.246)"/><path class="c" d="M665.814,291.386a11.009,11.009,0,0,1-2.1,12.549,1.222,1.222,0,0,0-.038,1.69,1.2,1.2,0,0,0,1.718.022,13.41,13.41,0,0,0,2.566-15.328,1.2,1.2,0,0,0-1.922-.311h0A1.21,1.21,0,0,0,665.814,291.386Z" transform="translate(-600.954 -282.814)"/><path class="c" d="M565.667,255.583a11.008,11.008,0,0,1,12.549-2.1,1.21,1.21,0,0,0,1.383-.228h0a1.2,1.2,0,0,0-.311-1.922,13.41,13.41,0,0,0-15.328,2.57,1.2,1.2,0,0,0,.022,1.718A1.218,1.218,0,0,0,565.667,255.583Z" transform="translate(-518.447 -250)"/><path class="c" d="M356.111,611.511a11.008,11.008,0,0,1-12.549,2.1,1.21,1.21,0,0,0-1.383.228h0a1.2,1.2,0,0,0,.311,1.922,13.412,13.412,0,0,0,15.333-2.563,1.2,1.2,0,1,0-1.713-1.687Z" transform="translate(-334.995 -548.744)"/><path class="c" d="M305.675,525.974a11.007,11.007,0,0,1,2.1-12.547,1.222,1.222,0,0,0,.038-1.69,1.2,1.2,0,0,0-1.728-.022,13.406,13.406,0,0,0-2.556,15.326,1.2,1.2,0,0,0,1.922.311h0A1.21,1.21,0,0,0,305.675,525.974Z" transform="translate(-302.2 -466.199)"/></g><g class="b" transform="translate(86.938 3072.445)"><path class="c" d="M398.313,309.542a5.546,5.546,0,0,0,4.112-5.333v-.014a5.515,5.515,0,0,0-5.515-5.515H396.9a5.544,5.544,0,0,0-5.332,4.112,15.47,15.47,0,0,1-29.823,0,5.544,5.544,0,0,0-5.332-4.112h-.014a5.515,5.515,0,0,0-5.515,5.515v.014a5.546,5.546,0,0,0,4.112,5.333,15.468,15.468,0,0,1,0,29.821,5.544,5.544,0,0,0-4.112,5.332v.012a5.513,5.513,0,0,0,5.515,5.513h.014a5.544,5.544,0,0,0,5.332-4.11,15.47,15.47,0,0,1,29.823,0,5.544,5.544,0,0,0,5.332,4.11h.014a5.515,5.515,0,0,0,5.515-5.513v-.016a5.544,5.544,0,0,0-4.112-5.332,15.468,15.468,0,0,1,0-29.821Z" transform="translate(-342.485 -290.279)"/><path class="c" d="M342.247,253.252h0a1.21,1.21,0,0,0,1.383.228,11.007,11.007,0,0,1,12.54,2.1,1.224,1.224,0,0,0,1.7.038,1.2,1.2,0,0,0,.021-1.716,13.413,13.413,0,0,0-15.323-2.573,1.2,1.2,0,0,0-.316,1.922Z" transform="translate(-335.053 -250)"/><path class="c" d="M303.532,290.332a13.411,13.411,0,0,0,2.525,15.3,1.23,1.23,0,0,0,1.612.15,1.2,1.2,0,0,0,.124-1.806,11.007,11.007,0,0,1-2.115-12.566,1.21,1.21,0,0,0-.226-1.383h0a1.2,1.2,0,0,0-1.92.308Z" transform="translate(-302.202 -282.828)"/><path class="c" d="M578.182,613.617a11.007,11.007,0,0,1-12.544-2.1,1.2,1.2,0,1,0-1.713,1.689,13.41,13.41,0,0,0,15.323,2.572,1.2,1.2,0,0,0,.311-1.922h0A1.21,1.21,0,0,0,578.182,613.617Z" transform="translate(-518.418 -548.749)"/><path class="c" d="M663.674,511.783a1.222,1.222,0,0,0,.038,1.69,11,11,0,0,1,2.1,12.559,1.21,1.21,0,0,0,.228,1.383h0a1.2,1.2,0,0,0,1.922-.311,13.413,13.413,0,0,0-2.566-15.333,1.2,1.2,0,0,0-1.72.012Z" transform="translate(-600.954 -466.246)"/><path class="c" d="M665.814,291.386a11.009,11.009,0,0,1-2.1,12.549,1.222,1.222,0,0,0-.038,1.69,1.2,1.2,0,0,0,1.718.022,13.41,13.41,0,0,0,2.566-15.328,1.2,1.2,0,0,0-1.922-.311h0A1.21,1.21,0,0,0,665.814,291.386Z" transform="translate(-600.954 -282.814)"/><path class="c" d="M565.667,255.583a11.008,11.008,0,0,1,12.549-2.1,1.21,1.21,0,0,0,1.383-.228h0a1.2,1.2,0,0,0-.311-1.922,13.41,13.41,0,0,0-15.328,2.57,1.2,1.2,0,0,0,.022,1.718A1.218,1.218,0,0,0,565.667,255.583Z" transform="translate(-518.447 -250)"/><path class="c" d="M356.111,611.511a11.008,11.008,0,0,1-12.549,2.1,1.21,1.21,0,0,0-1.383.228h0a1.2,1.2,0,0,0,.311,1.922,13.412,13.412,0,0,0,15.333-2.563,1.2,1.2,0,1,0-1.713-1.687Z" transform="translate(-334.995 -548.744)"/><path class="c" d="M305.675,525.974a11.007,11.007,0,0,1,2.1-12.547,1.222,1.222,0,0,0,.038-1.69,1.2,1.2,0,0,0-1.728-.022,13.406,13.406,0,0,0-2.556,15.326,1.2,1.2,0,0,0,1.922.311h0A1.21,1.21,0,0,0,305.675,525.974Z" transform="translate(-302.2 -466.199)"/></g><g class="b" transform="translate(175.938 3072.445)"><path class="c" d="M398.313,309.542a5.546,5.546,0,0,0,4.112-5.333v-.014a5.515,5.515,0,0,0-5.515-5.515H396.9a5.544,5.544,0,0,0-5.332,4.112,15.47,15.47,0,0,1-29.823,0,5.544,5.544,0,0,0-5.332-4.112h-.014a5.515,5.515,0,0,0-5.515,5.515v.014a5.546,5.546,0,0,0,4.112,5.333,15.468,15.468,0,0,1,0,29.821,5.544,5.544,0,0,0-4.112,5.332v.012a5.513,5.513,0,0,0,5.515,5.513h.014a5.544,5.544,0,0,0,5.332-4.11,15.47,15.47,0,0,1,29.823,0,5.544,5.544,0,0,0,5.332,4.11h.014a5.515,5.515,0,0,0,5.515-5.513v-.016a5.544,5.544,0,0,0-4.112-5.332,15.468,15.468,0,0,1,0-29.821Z" transform="translate(-342.485 -290.279)"/><path class="c" d="M342.247,253.252h0a1.21,1.21,0,0,0,1.383.228,11.007,11.007,0,0,1,12.54,2.1,1.224,1.224,0,0,0,1.7.038,1.2,1.2,0,0,0,.021-1.716,13.413,13.413,0,0,0-15.323-2.573,1.2,1.2,0,0,0-.316,1.922Z" transform="translate(-335.053 -250)"/><path class="c" d="M303.532,290.332a13.411,13.411,0,0,0,2.525,15.3,1.23,1.23,0,0,0,1.612.15,1.2,1.2,0,0,0,.124-1.806,11.007,11.007,0,0,1-2.115-12.566,1.21,1.21,0,0,0-.226-1.383h0a1.2,1.2,0,0,0-1.92.308Z" transform="translate(-302.202 -282.828)"/><path class="c" d="M578.182,613.617a11.007,11.007,0,0,1-12.544-2.1,1.2,1.2,0,1,0-1.713,1.689,13.41,13.41,0,0,0,15.323,2.572,1.2,1.2,0,0,0,.311-1.922h0A1.21,1.21,0,0,0,578.182,613.617Z" transform="translate(-518.418 -548.749)"/><path class="c" d="M663.674,511.783a1.222,1.222,0,0,0,.038,1.69,11,11,0,0,1,2.1,12.559,1.21,1.21,0,0,0,.228,1.383h0a1.2,1.2,0,0,0,1.922-.311,13.413,13.413,0,0,0-2.566-15.333,1.2,1.2,0,0,0-1.72.012Z" transform="translate(-600.954 -466.246)"/><path class="c" d="M665.814,291.386a11.009,11.009,0,0,1-2.1,12.549,1.222,1.222,0,0,0-.038,1.69,1.2,1.2,0,0,0,1.718.022,13.41,13.41,0,0,0,2.566-15.328,1.2,1.2,0,0,0-1.922-.311h0A1.21,1.21,0,0,0,665.814,291.386Z" transform="translate(-600.954 -282.814)"/><path class="c" d="M565.667,255.583a11.008,11.008,0,0,1,12.549-2.1,1.21,1.21,0,0,0,1.383-.228h0a1.2,1.2,0,0,0-.311-1.922,13.41,13.41,0,0,0-15.328,2.57,1.2,1.2,0,0,0,.022,1.718A1.218,1.218,0,0,0,565.667,255.583Z" transform="translate(-518.447 -250)"/><path class="c" d="M356.111,611.511a11.008,11.008,0,0,1-12.549,2.1,1.21,1.21,0,0,0-1.383.228h0a1.2,1.2,0,0,0,.311,1.922,13.412,13.412,0,0,0,15.333-2.563,1.2,1.2,0,1,0-1.713-1.687Z" transform="translate(-334.995 -548.744)"/><path class="c" d="M305.675,525.974a11.007,11.007,0,0,1,2.1-12.547,1.222,1.222,0,0,0,.038-1.69,1.2,1.2,0,0,0-1.728-.022,13.406,13.406,0,0,0-2.556,15.326,1.2,1.2,0,0,0,1.922.311h0A1.21,1.21,0,0,0,305.675,525.974Z" transform="translate(-302.2 -466.199)"/></g><g class="b" transform="translate(264.938 3072.445)"><path class="c" d="M398.313,309.542a5.546,5.546,0,0,0,4.112-5.333v-.014a5.515,5.515,0,0,0-5.515-5.515H396.9a5.544,5.544,0,0,0-5.332,4.112,15.47,15.47,0,0,1-29.823,0,5.544,5.544,0,0,0-5.332-4.112h-.014a5.515,5.515,0,0,0-5.515,5.515v.014a5.546,5.546,0,0,0,4.112,5.333,15.468,15.468,0,0,1,0,29.821,5.544,5.544,0,0,0-4.112,5.332v.012a5.513,5.513,0,0,0,5.515,5.513h.014a5.544,5.544,0,0,0,5.332-4.11,15.47,15.47,0,0,1,29.823,0,5.544,5.544,0,0,0,5.332,4.11h.014a5.515,5.515,0,0,0,5.515-5.513v-.016a5.544,5.544,0,0,0-4.112-5.332,15.468,15.468,0,0,1,0-29.821Z" transform="translate(-342.485 -290.279)"/><path class="c" d="M342.247,253.252h0a1.21,1.21,0,0,0,1.383.228,11.007,11.007,0,0,1,12.54,2.1,1.224,1.224,0,0,0,1.7.038,1.2,1.2,0,0,0,.021-1.716,13.413,13.413,0,0,0-15.323-2.573,1.2,1.2,0,0,0-.316,1.922Z" transform="translate(-335.053 -250)"/><path class="c" d="M303.532,290.332a13.411,13.411,0,0,0,2.525,15.3,1.23,1.23,0,0,0,1.612.15,1.2,1.2,0,0,0,.124-1.806,11.007,11.007,0,0,1-2.115-12.566,1.21,1.21,0,0,0-.226-1.383h0a1.2,1.2,0,0,0-1.92.308Z" transform="translate(-302.202 -282.828)"/><path class="c" d="M578.182,613.617a11.007,11.007,0,0,1-12.544-2.1,1.2,1.2,0,1,0-1.713,1.689,13.41,13.41,0,0,0,15.323,2.572,1.2,1.2,0,0,0,.311-1.922h0A1.21,1.21,0,0,0,578.182,613.617Z" transform="translate(-518.418 -548.749)"/><path class="c" d="M663.674,511.783a1.222,1.222,0,0,0,.038,1.69,11,11,0,0,1,2.1,12.559,1.21,1.21,0,0,0,.228,1.383h0a1.2,1.2,0,0,0,1.922-.311,13.413,13.413,0,0,0-2.566-15.333,1.2,1.2,0,0,0-1.72.012Z" transform="translate(-600.954 -466.246)"/><path class="c" d="M665.814,291.386a11.009,11.009,0,0,1-2.1,12.549,1.222,1.222,0,0,0-.038,1.69,1.2,1.2,0,0,0,1.718.022,13.41,13.41,0,0,0,2.566-15.328,1.2,1.2,0,0,0-1.922-.311h0A1.21,1.21,0,0,0,665.814,291.386Z" transform="translate(-600.954 -282.814)"/><path class="c" d="M565.667,255.583a11.008,11.008,0,0,1,12.549-2.1,1.21,1.21,0,0,0,1.383-.228h0a1.2,1.2,0,0,0-.311-1.922,13.41,13.41,0,0,0-15.328,2.57,1.2,1.2,0,0,0,.022,1.718A1.218,1.218,0,0,0,565.667,255.583Z" transform="translate(-518.447 -250)"/><path class="c" d="M356.111,611.511a11.008,11.008,0,0,1-12.549,2.1,1.21,1.21,0,0,0-1.383.228h0a1.2,1.2,0,0,0,.311,1.922,13.412,13.412,0,0,0,15.333-2.563,1.2,1.2,0,1,0-1.713-1.687Z" transform="translate(-334.995 -548.744)"/><path class="c" d="M305.675,525.974a11.007,11.007,0,0,1,2.1-12.547,1.222,1.222,0,0,0,.038-1.69,1.2,1.2,0,0,0-1.728-.022,13.406,13.406,0,0,0-2.556,15.326,1.2,1.2,0,0,0,1.922.311h0A1.21,1.21,0,0,0,305.675,525.974Z" transform="translate(-302.2 -466.199)"/></g><g class="b" transform="translate(-2.063 3161.445)"><path class="c" d="M398.313,309.542a5.546,5.546,0,0,0,4.112-5.333v-.014a5.515,5.515,0,0,0-5.515-5.515H396.9a5.544,5.544,0,0,0-5.332,4.112,15.47,15.47,0,0,1-29.823,0,5.544,5.544,0,0,0-5.332-4.112h-.014a5.515,5.515,0,0,0-5.515,5.515v.014a5.546,5.546,0,0,0,4.112,5.333,15.468,15.468,0,0,1,0,29.821,5.544,5.544,0,0,0-4.112,5.332v.012a5.513,5.513,0,0,0,5.515,5.513h.014a5.544,5.544,0,0,0,5.332-4.11,15.47,15.47,0,0,1,29.823,0,5.544,5.544,0,0,0,5.332,4.11h.014a5.515,5.515,0,0,0,5.515-5.513v-.016a5.544,5.544,0,0,0-4.112-5.332,15.468,15.468,0,0,1,0-29.821Z" transform="translate(-342.485 -290.279)"/><path class="c" d="M342.247,253.252h0a1.21,1.21,0,0,0,1.383.228,11.007,11.007,0,0,1,12.54,2.1,1.224,1.224,0,0,0,1.7.038,1.2,1.2,0,0,0,.021-1.716,13.413,13.413,0,0,0-15.323-2.573,1.2,1.2,0,0,0-.316,1.922Z" transform="translate(-335.053 -250)"/><path class="c" d="M303.532,290.332a13.411,13.411,0,0,0,2.525,15.3,1.23,1.23,0,0,0,1.612.15,1.2,1.2,0,0,0,.124-1.806,11.007,11.007,0,0,1-2.115-12.566,1.21,1.21,0,0,0-.226-1.383h0a1.2,1.2,0,0,0-1.92.308Z" transform="translate(-302.202 -282.828)"/><path class="c" d="M578.182,613.617a11.007,11.007,0,0,1-12.544-2.1,1.2,1.2,0,1,0-1.713,1.689,13.41,13.41,0,0,0,15.323,2.572,1.2,1.2,0,0,0,.311-1.922h0A1.21,1.21,0,0,0,578.182,613.617Z" transform="translate(-518.418 -548.749)"/><path class="c" d="M663.674,511.783a1.222,1.222,0,0,0,.038,1.69,11,11,0,0,1,2.1,12.559,1.21,1.21,0,0,0,.228,1.383h0a1.2,1.2,0,0,0,1.922-.311,13.413,13.413,0,0,0-2.566-15.333,1.2,1.2,0,0,0-1.72.012Z" transform="translate(-600.954 -466.246)"/><path class="c" d="M665.814,291.386a11.009,11.009,0,0,1-2.1,12.549,1.222,1.222,0,0,0-.038,1.69,1.2,1.2,0,0,0,1.718.022,13.41,13.41,0,0,0,2.566-15.328,1.2,1.2,0,0,0-1.922-.311h0A1.21,1.21,0,0,0,665.814,291.386Z" transform="translate(-600.954 -282.814)"/><path class="c" d="M565.667,255.583a11.008,11.008,0,0,1,12.549-2.1,1.21,1.21,0,0,0,1.383-.228h0a1.2,1.2,0,0,0-.311-1.922,13.41,13.41,0,0,0-15.328,2.57,1.2,1.2,0,0,0,.022,1.718A1.218,1.218,0,0,0,565.667,255.583Z" transform="translate(-518.447 -250)"/><path class="c" d="M356.111,611.511a11.008,11.008,0,0,1-12.549,2.1,1.21,1.21,0,0,0-1.383.228h0a1.2,1.2,0,0,0,.311,1.922,13.412,13.412,0,0,0,15.333-2.563,1.2,1.2,0,1,0-1.713-1.687Z" transform="translate(-334.995 -548.744)"/><path class="c" d="M305.675,525.974a11.007,11.007,0,0,1,2.1-12.547,1.222,1.222,0,0,0,.038-1.69,1.2,1.2,0,0,0-1.728-.022,13.406,13.406,0,0,0-2.556,15.326,1.2,1.2,0,0,0,1.922.311h0A1.21,1.21,0,0,0,305.675,525.974Z" transform="translate(-302.2 -466.199)"/></g><g class="b" transform="translate(86.938 3161.445)"><path class="c" d="M398.313,309.542a5.546,5.546,0,0,0,4.112-5.333v-.014a5.515,5.515,0,0,0-5.515-5.515H396.9a5.544,5.544,0,0,0-5.332,4.112,15.47,15.47,0,0,1-29.823,0,5.544,5.544,0,0,0-5.332-4.112h-.014a5.515,5.515,0,0,0-5.515,5.515v.014a5.546,5.546,0,0,0,4.112,5.333,15.468,15.468,0,0,1,0,29.821,5.544,5.544,0,0,0-4.112,5.332v.012a5.513,5.513,0,0,0,5.515,5.513h.014a5.544,5.544,0,0,0,5.332-4.11,15.47,15.47,0,0,1,29.823,0,5.544,5.544,0,0,0,5.332,4.11h.014a5.515,5.515,0,0,0,5.515-5.513v-.016a5.544,5.544,0,0,0-4.112-5.332,15.468,15.468,0,0,1,0-29.821Z" transform="translate(-342.485 -290.279)"/><path class="c" d="M342.247,253.252h0a1.21,1.21,0,0,0,1.383.228,11.007,11.007,0,0,1,12.54,2.1,1.224,1.224,0,0,0,1.7.038,1.2,1.2,0,0,0,.021-1.716,13.413,13.413,0,0,0-15.323-2.573,1.2,1.2,0,0,0-.316,1.922Z" transform="translate(-335.053 -250)"/><path class="c" d="M303.532,290.332a13.411,13.411,0,0,0,2.525,15.3,1.23,1.23,0,0,0,1.612.15,1.2,1.2,0,0,0,.124-1.806,11.007,11.007,0,0,1-2.115-12.566,1.21,1.21,0,0,0-.226-1.383h0a1.2,1.2,0,0,0-1.92.308Z" transform="translate(-302.202 -282.828)"/><path class="c" d="M578.182,613.617a11.007,11.007,0,0,1-12.544-2.1,1.2,1.2,0,1,0-1.713,1.689,13.41,13.41,0,0,0,15.323,2.572,1.2,1.2,0,0,0,.311-1.922h0A1.21,1.21,0,0,0,578.182,613.617Z" transform="translate(-518.418 -548.749)"/><path class="c" d="M663.674,511.783a1.222,1.222,0,0,0,.038,1.69,11,11,0,0,1,2.1,12.559,1.21,1.21,0,0,0,.228,1.383h0a1.2,1.2,0,0,0,1.922-.311,13.413,13.413,0,0,0-2.566-15.333,1.2,1.2,0,0,0-1.72.012Z" transform="translate(-600.954 -466.246)"/><path class="c" d="M665.814,291.386a11.009,11.009,0,0,1-2.1,12.549,1.222,1.222,0,0,0-.038,1.69,1.2,1.2,0,0,0,1.718.022,13.41,13.41,0,0,0,2.566-15.328,1.2,1.2,0,0,0-1.922-.311h0A1.21,1.21,0,0,0,665.814,291.386Z" transform="translate(-600.954 -282.814)"/><path class="c" d="M565.667,255.583a11.008,11.008,0,0,1,12.549-2.1,1.21,1.21,0,0,0,1.383-.228h0a1.2,1.2,0,0,0-.311-1.922,13.41,13.41,0,0,0-15.328,2.57,1.2,1.2,0,0,0,.022,1.718A1.218,1.218,0,0,0,565.667,255.583Z" transform="translate(-518.447 -250)"/><path class="c" d="M356.111,611.511a11.008,11.008,0,0,1-12.549,2.1,1.21,1.21,0,0,0-1.383.228h0a1.2,1.2,0,0,0,.311,1.922,13.412,13.412,0,0,0,15.333-2.563,1.2,1.2,0,1,0-1.713-1.687Z" transform="translate(-334.995 -548.744)"/><path class="c" d="M305.675,525.974a11.007,11.007,0,0,1,2.1-12.547,1.222,1.222,0,0,0,.038-1.69,1.2,1.2,0,0,0-1.728-.022,13.406,13.406,0,0,0-2.556,15.326,1.2,1.2,0,0,0,1.922.311h0A1.21,1.21,0,0,0,305.675,525.974Z" transform="translate(-302.2 -466.199)"/></g><g class="b" transform="translate(175.938 3161.445)"><path class="c" d="M398.313,309.542a5.546,5.546,0,0,0,4.112-5.333v-.014a5.515,5.515,0,0,0-5.515-5.515H396.9a5.544,5.544,0,0,0-5.332,4.112,15.47,15.47,0,0,1-29.823,0,5.544,5.544,0,0,0-5.332-4.112h-.014a5.515,5.515,0,0,0-5.515,5.515v.014a5.546,5.546,0,0,0,4.112,5.333,15.468,15.468,0,0,1,0,29.821,5.544,5.544,0,0,0-4.112,5.332v.012a5.513,5.513,0,0,0,5.515,5.513h.014a5.544,5.544,0,0,0,5.332-4.11,15.47,15.47,0,0,1,29.823,0,5.544,5.544,0,0,0,5.332,4.11h.014a5.515,5.515,0,0,0,5.515-5.513v-.016a5.544,5.544,0,0,0-4.112-5.332,15.468,15.468,0,0,1,0-29.821Z" transform="translate(-342.485 -290.279)"/><path class="c" d="M342.247,253.252h0a1.21,1.21,0,0,0,1.383.228,11.007,11.007,0,0,1,12.54,2.1,1.224,1.224,0,0,0,1.7.038,1.2,1.2,0,0,0,.021-1.716,13.413,13.413,0,0,0-15.323-2.573,1.2,1.2,0,0,0-.316,1.922Z" transform="translate(-335.053 -250)"/><path class="c" d="M303.532,290.332a13.411,13.411,0,0,0,2.525,15.3,1.23,1.23,0,0,0,1.612.15,1.2,1.2,0,0,0,.124-1.806,11.007,11.007,0,0,1-2.115-12.566,1.21,1.21,0,0,0-.226-1.383h0a1.2,1.2,0,0,0-1.92.308Z" transform="translate(-302.202 -282.828)"/><path class="c" d="M578.182,613.617a11.007,11.007,0,0,1-12.544-2.1,1.2,1.2,0,1,0-1.713,1.689,13.41,13.41,0,0,0,15.323,2.572,1.2,1.2,0,0,0,.311-1.922h0A1.21,1.21,0,0,0,578.182,613.617Z" transform="translate(-518.418 -548.749)"/><path class="c" d="M663.674,511.783a1.222,1.222,0,0,0,.038,1.69,11,11,0,0,1,2.1,12.559,1.21,1.21,0,0,0,.228,1.383h0a1.2,1.2,0,0,0,1.922-.311,13.413,13.413,0,0,0-2.566-15.333,1.2,1.2,0,0,0-1.72.012Z" transform="translate(-600.954 -466.246)"/><path class="c" d="M665.814,291.386a11.009,11.009,0,0,1-2.1,12.549,1.222,1.222,0,0,0-.038,1.69,1.2,1.2,0,0,0,1.718.022,13.41,13.41,0,0,0,2.566-15.328,1.2,1.2,0,0,0-1.922-.311h0A1.21,1.21,0,0,0,665.814,291.386Z" transform="translate(-600.954 -282.814)"/><path class="c" d="M565.667,255.583a11.008,11.008,0,0,1,12.549-2.1,1.21,1.21,0,0,0,1.383-.228h0a1.2,1.2,0,0,0-.311-1.922,13.41,13.41,0,0,0-15.328,2.57,1.2,1.2,0,0,0,.022,1.718A1.218,1.218,0,0,0,565.667,255.583Z" transform="translate(-518.447 -250)"/><path class="c" d="M356.111,611.511a11.008,11.008,0,0,1-12.549,2.1,1.21,1.21,0,0,0-1.383.228h0a1.2,1.2,0,0,0,.311,1.922,13.412,13.412,0,0,0,15.333-2.563,1.2,1.2,0,1,0-1.713-1.687Z" transform="translate(-334.995 -548.744)"/><path class="c" d="M305.675,525.974a11.007,11.007,0,0,1,2.1-12.547,1.222,1.222,0,0,0,.038-1.69,1.2,1.2,0,0,0-1.728-.022,13.406,13.406,0,0,0-2.556,15.326,1.2,1.2,0,0,0,1.922.311h0A1.21,1.21,0,0,0,305.675,525.974Z" transform="translate(-302.2 -466.199)"/></g><g class="b" transform="translate(264.938 3161.445)"><path class="c" d="M398.313,309.542a5.546,5.546,0,0,0,4.112-5.333v-.014a5.515,5.515,0,0,0-5.515-5.515H396.9a5.544,5.544,0,0,0-5.332,4.112,15.47,15.47,0,0,1-29.823,0,5.544,5.544,0,0,0-5.332-4.112h-.014a5.515,5.515,0,0,0-5.515,5.515v.014a5.546,5.546,0,0,0,4.112,5.333,15.468,15.468,0,0,1,0,29.821,5.544,5.544,0,0,0-4.112,5.332v.012a5.513,5.513,0,0,0,5.515,5.513h.014a5.544,5.544,0,0,0,5.332-4.11,15.47,15.47,0,0,1,29.823,0,5.544,5.544,0,0,0,5.332,4.11h.014a5.515,5.515,0,0,0,5.515-5.513v-.016a5.544,5.544,0,0,0-4.112-5.332,15.468,15.468,0,0,1,0-29.821Z" transform="translate(-342.485 -290.279)"/><path class="c" d="M342.247,253.252h0a1.21,1.21,0,0,0,1.383.228,11.007,11.007,0,0,1,12.54,2.1,1.224,1.224,0,0,0,1.7.038,1.2,1.2,0,0,0,.021-1.716,13.413,13.413,0,0,0-15.323-2.573,1.2,1.2,0,0,0-.316,1.922Z" transform="translate(-335.053 -250)"/><path class="c" d="M303.532,290.332a13.411,13.411,0,0,0,2.525,15.3,1.23,1.23,0,0,0,1.612.15,1.2,1.2,0,0,0,.124-1.806,11.007,11.007,0,0,1-2.115-12.566,1.21,1.21,0,0,0-.226-1.383h0a1.2,1.2,0,0,0-1.92.308Z" transform="translate(-302.202 -282.828)"/><path class="c" d="M578.182,613.617a11.007,11.007,0,0,1-12.544-2.1,1.2,1.2,0,1,0-1.713,1.689,13.41,13.41,0,0,0,15.323,2.572,1.2,1.2,0,0,0,.311-1.922h0A1.21,1.21,0,0,0,578.182,613.617Z" transform="translate(-518.418 -548.749)"/><path class="c" d="M663.674,511.783a1.222,1.222,0,0,0,.038,1.69,11,11,0,0,1,2.1,12.559,1.21,1.21,0,0,0,.228,1.383h0a1.2,1.2,0,0,0,1.922-.311,13.413,13.413,0,0,0-2.566-15.333,1.2,1.2,0,0,0-1.72.012Z" transform="translate(-600.954 -466.246)"/><path class="c" d="M665.814,291.386a11.009,11.009,0,0,1-2.1,12.549,1.222,1.222,0,0,0-.038,1.69,1.2,1.2,0,0,0,1.718.022,13.41,13.41,0,0,0,2.566-15.328,1.2,1.2,0,0,0-1.922-.311h0A1.21,1.21,0,0,0,665.814,291.386Z" transform="translate(-600.954 -282.814)"/><path class="c" d="M565.667,255.583a11.008,11.008,0,0,1,12.549-2.1,1.21,1.21,0,0,0,1.383-.228h0a1.2,1.2,0,0,0-.311-1.922,13.41,13.41,0,0,0-15.328,2.57,1.2,1.2,0,0,0,.022,1.718A1.218,1.218,0,0,0,565.667,255.583Z" transform="translate(-518.447 -250)"/><path class="c" d="M356.111,611.511a11.008,11.008,0,0,1-12.549,2.1,1.21,1.21,0,0,0-1.383.228h0a1.2,1.2,0,0,0,.311,1.922,13.412,13.412,0,0,0,15.333-2.563,1.2,1.2,0,1,0-1.713-1.687Z" transform="translate(-334.995 -548.744)"/><path class="c" d="M305.675,525.974a11.007,11.007,0,0,1,2.1-12.547,1.222,1.222,0,0,0,.038-1.69,1.2,1.2,0,0,0-1.728-.022,13.406,13.406,0,0,0-2.556,15.326,1.2,1.2,0,0,0,1.922.311h0A1.21,1.21,0,0,0,305.675,525.974Z" transform="translate(-302.2 -466.199)"/></g><g class="b" transform="translate(-2.063 3250.445)"><path class="c" d="M398.313,309.542a5.546,5.546,0,0,0,4.112-5.333v-.014a5.515,5.515,0,0,0-5.515-5.515H396.9a5.544,5.544,0,0,0-5.332,4.112,15.47,15.47,0,0,1-29.823,0,5.544,5.544,0,0,0-5.332-4.112h-.014a5.515,5.515,0,0,0-5.515,5.515v.014a5.546,5.546,0,0,0,4.112,5.333,15.468,15.468,0,0,1,0,29.821,5.544,5.544,0,0,0-4.112,5.332v.012a5.513,5.513,0,0,0,5.515,5.513h.014a5.544,5.544,0,0,0,5.332-4.11,15.47,15.47,0,0,1,29.823,0,5.544,5.544,0,0,0,5.332,4.11h.014a5.515,5.515,0,0,0,5.515-5.513v-.016a5.544,5.544,0,0,0-4.112-5.332,15.468,15.468,0,0,1,0-29.821Z" transform="translate(-342.485 -290.279)"/><path class="c" d="M342.247,253.252h0a1.21,1.21,0,0,0,1.383.228,11.007,11.007,0,0,1,12.54,2.1,1.224,1.224,0,0,0,1.7.038,1.2,1.2,0,0,0,.021-1.716,13.413,13.413,0,0,0-15.323-2.573,1.2,1.2,0,0,0-.316,1.922Z" transform="translate(-335.053 -250)"/><path class="c" d="M303.532,290.332a13.411,13.411,0,0,0,2.525,15.3,1.23,1.23,0,0,0,1.612.15,1.2,1.2,0,0,0,.124-1.806,11.007,11.007,0,0,1-2.115-12.566,1.21,1.21,0,0,0-.226-1.383h0a1.2,1.2,0,0,0-1.92.308Z" transform="translate(-302.202 -282.828)"/><path class="c" d="M578.182,613.617a11.007,11.007,0,0,1-12.544-2.1,1.2,1.2,0,1,0-1.713,1.689,13.41,13.41,0,0,0,15.323,2.572,1.2,1.2,0,0,0,.311-1.922h0A1.21,1.21,0,0,0,578.182,613.617Z" transform="translate(-518.418 -548.749)"/><path class="c" d="M663.674,511.783a1.222,1.222,0,0,0,.038,1.69,11,11,0,0,1,2.1,12.559,1.21,1.21,0,0,0,.228,1.383h0a1.2,1.2,0,0,0,1.922-.311,13.413,13.413,0,0,0-2.566-15.333,1.2,1.2,0,0,0-1.72.012Z" transform="translate(-600.954 -466.246)"/><path class="c" d="M665.814,291.386a11.009,11.009,0,0,1-2.1,12.549,1.222,1.222,0,0,0-.038,1.69,1.2,1.2,0,0,0,1.718.022,13.41,13.41,0,0,0,2.566-15.328,1.2,1.2,0,0,0-1.922-.311h0A1.21,1.21,0,0,0,665.814,291.386Z" transform="translate(-600.954 -282.814)"/><path class="c" d="M565.667,255.583a11.008,11.008,0,0,1,12.549-2.1,1.21,1.21,0,0,0,1.383-.228h0a1.2,1.2,0,0,0-.311-1.922,13.41,13.41,0,0,0-15.328,2.57,1.2,1.2,0,0,0,.022,1.718A1.218,1.218,0,0,0,565.667,255.583Z" transform="translate(-518.447 -250)"/><path class="c" d="M356.111,611.511a11.008,11.008,0,0,1-12.549,2.1,1.21,1.21,0,0,0-1.383.228h0a1.2,1.2,0,0,0,.311,1.922,13.412,13.412,0,0,0,15.333-2.563,1.2,1.2,0,1,0-1.713-1.687Z" transform="translate(-334.995 -548.744)"/><path class="c" d="M305.675,525.974a11.007,11.007,0,0,1,2.1-12.547,1.222,1.222,0,0,0,.038-1.69,1.2,1.2,0,0,0-1.728-.022,13.406,13.406,0,0,0-2.556,15.326,1.2,1.2,0,0,0,1.922.311h0A1.21,1.21,0,0,0,305.675,525.974Z" transform="translate(-302.2 -466.199)"/></g><g class="b" transform="translate(86.938 3250.445)"><path class="c" d="M398.313,309.542a5.546,5.546,0,0,0,4.112-5.333v-.014a5.515,5.515,0,0,0-5.515-5.515H396.9a5.544,5.544,0,0,0-5.332,4.112,15.47,15.47,0,0,1-29.823,0,5.544,5.544,0,0,0-5.332-4.112h-.014a5.515,5.515,0,0,0-5.515,5.515v.014a5.546,5.546,0,0,0,4.112,5.333,15.468,15.468,0,0,1,0,29.821,5.544,5.544,0,0,0-4.112,5.332v.012a5.513,5.513,0,0,0,5.515,5.513h.014a5.544,5.544,0,0,0,5.332-4.11,15.47,15.47,0,0,1,29.823,0,5.544,5.544,0,0,0,5.332,4.11h.014a5.515,5.515,0,0,0,5.515-5.513v-.016a5.544,5.544,0,0,0-4.112-5.332,15.468,15.468,0,0,1,0-29.821Z" transform="translate(-342.485 -290.279)"/><path class="c" d="M342.247,253.252h0a1.21,1.21,0,0,0,1.383.228,11.007,11.007,0,0,1,12.54,2.1,1.224,1.224,0,0,0,1.7.038,1.2,1.2,0,0,0,.021-1.716,13.413,13.413,0,0,0-15.323-2.573,1.2,1.2,0,0,0-.316,1.922Z" transform="translate(-335.053 -250)"/><path class="c" d="M303.532,290.332a13.411,13.411,0,0,0,2.525,15.3,1.23,1.23,0,0,0,1.612.15,1.2,1.2,0,0,0,.124-1.806,11.007,11.007,0,0,1-2.115-12.566,1.21,1.21,0,0,0-.226-1.383h0a1.2,1.2,0,0,0-1.92.308Z" transform="translate(-302.202 -282.828)"/><path class="c" d="M578.182,613.617a11.007,11.007,0,0,1-12.544-2.1,1.2,1.2,0,1,0-1.713,1.689,13.41,13.41,0,0,0,15.323,2.572,1.2,1.2,0,0,0,.311-1.922h0A1.21,1.21,0,0,0,578.182,613.617Z" transform="translate(-518.418 -548.749)"/><path class="c" d="M663.674,511.783a1.222,1.222,0,0,0,.038,1.69,11,11,0,0,1,2.1,12.559,1.21,1.21,0,0,0,.228,1.383h0a1.2,1.2,0,0,0,1.922-.311,13.413,13.413,0,0,0-2.566-15.333,1.2,1.2,0,0,0-1.72.012Z" transform="translate(-600.954 -466.246)"/><path class="c" d="M665.814,291.386a11.009,11.009,0,0,1-2.1,12.549,1.222,1.222,0,0,0-.038,1.69,1.2,1.2,0,0,0,1.718.022,13.41,13.41,0,0,0,2.566-15.328,1.2,1.2,0,0,0-1.922-.311h0A1.21,1.21,0,0,0,665.814,291.386Z" transform="translate(-600.954 -282.814)"/><path class="c" d="M565.667,255.583a11.008,11.008,0,0,1,12.549-2.1,1.21,1.21,0,0,0,1.383-.228h0a1.2,1.2,0,0,0-.311-1.922,13.41,13.41,0,0,0-15.328,2.57,1.2,1.2,0,0,0,.022,1.718A1.218,1.218,0,0,0,565.667,255.583Z" transform="translate(-518.447 -250)"/><path class="c" d="M356.111,611.511a11.008,11.008,0,0,1-12.549,2.1,1.21,1.21,0,0,0-1.383.228h0a1.2,1.2,0,0,0,.311,1.922,13.412,13.412,0,0,0,15.333-2.563,1.2,1.2,0,1,0-1.713-1.687Z" transform="translate(-334.995 -548.744)"/><path class="c" d="M305.675,525.974a11.007,11.007,0,0,1,2.1-12.547,1.222,1.222,0,0,0,.038-1.69,1.2,1.2,0,0,0-1.728-.022,13.406,13.406,0,0,0-2.556,15.326,1.2,1.2,0,0,0,1.922.311h0A1.21,1.21,0,0,0,305.675,525.974Z" transform="translate(-302.2 -466.199)"/></g><g class="b" transform="translate(175.938 3250.445)"><path class="c" d="M398.313,309.542a5.546,5.546,0,0,0,4.112-5.333v-.014a5.515,5.515,0,0,0-5.515-5.515H396.9a5.544,5.544,0,0,0-5.332,4.112,15.47,15.47,0,0,1-29.823,0,5.544,5.544,0,0,0-5.332-4.112h-.014a5.515,5.515,0,0,0-5.515,5.515v.014a5.546,5.546,0,0,0,4.112,5.333,15.468,15.468,0,0,1,0,29.821,5.544,5.544,0,0,0-4.112,5.332v.012a5.513,5.513,0,0,0,5.515,5.513h.014a5.544,5.544,0,0,0,5.332-4.11,15.47,15.47,0,0,1,29.823,0,5.544,5.544,0,0,0,5.332,4.11h.014a5.515,5.515,0,0,0,5.515-5.513v-.016a5.544,5.544,0,0,0-4.112-5.332,15.468,15.468,0,0,1,0-29.821Z" transform="translate(-342.485 -290.279)"/><path class="c" d="M342.247,253.252h0a1.21,1.21,0,0,0,1.383.228,11.007,11.007,0,0,1,12.54,2.1,1.224,1.224,0,0,0,1.7.038,1.2,1.2,0,0,0,.021-1.716,13.413,13.413,0,0,0-15.323-2.573,1.2,1.2,0,0,0-.316,1.922Z" transform="translate(-335.053 -250)"/><path class="c" d="M303.532,290.332a13.411,13.411,0,0,0,2.525,15.3,1.23,1.23,0,0,0,1.612.15,1.2,1.2,0,0,0,.124-1.806,11.007,11.007,0,0,1-2.115-12.566,1.21,1.21,0,0,0-.226-1.383h0a1.2,1.2,0,0,0-1.92.308Z" transform="translate(-302.202 -282.828)"/><path class="c" d="M578.182,613.617a11.007,11.007,0,0,1-12.544-2.1,1.2,1.2,0,1,0-1.713,1.689,13.41,13.41,0,0,0,15.323,2.572,1.2,1.2,0,0,0,.311-1.922h0A1.21,1.21,0,0,0,578.182,613.617Z" transform="translate(-518.418 -548.749)"/><path class="c" d="M663.674,511.783a1.222,1.222,0,0,0,.038,1.69,11,11,0,0,1,2.1,12.559,1.21,1.21,0,0,0,.228,1.383h0a1.2,1.2,0,0,0,1.922-.311,13.413,13.413,0,0,0-2.566-15.333,1.2,1.2,0,0,0-1.72.012Z" transform="translate(-600.954 -466.246)"/><path class="c" d="M665.814,291.386a11.009,11.009,0,0,1-2.1,12.549,1.222,1.222,0,0,0-.038,1.69,1.2,1.2,0,0,0,1.718.022,13.41,13.41,0,0,0,2.566-15.328,1.2,1.2,0,0,0-1.922-.311h0A1.21,1.21,0,0,0,665.814,291.386Z" transform="translate(-600.954 -282.814)"/><path class="c" d="M565.667,255.583a11.008,11.008,0,0,1,12.549-2.1,1.21,1.21,0,0,0,1.383-.228h0a1.2,1.2,0,0,0-.311-1.922,13.41,13.41,0,0,0-15.328,2.57,1.2,1.2,0,0,0,.022,1.718A1.218,1.218,0,0,0,565.667,255.583Z" transform="translate(-518.447 -250)"/><path class="c" d="M356.111,611.511a11.008,11.008,0,0,1-12.549,2.1,1.21,1.21,0,0,0-1.383.228h0a1.2,1.2,0,0,0,.311,1.922,13.412,13.412,0,0,0,15.333-2.563,1.2,1.2,0,1,0-1.713-1.687Z" transform="translate(-334.995 -548.744)"/><path class="c" d="M305.675,525.974a11.007,11.007,0,0,1,2.1-12.547,1.222,1.222,0,0,0,.038-1.69,1.2,1.2,0,0,0-1.728-.022,13.406,13.406,0,0,0-2.556,15.326,1.2,1.2,0,0,0,1.922.311h0A1.21,1.21,0,0,0,305.675,525.974Z" transform="translate(-302.2 -466.199)"/></g><g class="b" transform="translate(264.938 3250.445)"><path class="c" d="M398.313,309.542a5.546,5.546,0,0,0,4.112-5.333v-.014a5.515,5.515,0,0,0-5.515-5.515H396.9a5.544,5.544,0,0,0-5.332,4.112,15.47,15.47,0,0,1-29.823,0,5.544,5.544,0,0,0-5.332-4.112h-.014a5.515,5.515,0,0,0-5.515,5.515v.014a5.546,5.546,0,0,0,4.112,5.333,15.468,15.468,0,0,1,0,29.821,5.544,5.544,0,0,0-4.112,5.332v.012a5.513,5.513,0,0,0,5.515,5.513h.014a5.544,5.544,0,0,0,5.332-4.11,15.47,15.47,0,0,1,29.823,0,5.544,5.544,0,0,0,5.332,4.11h.014a5.515,5.515,0,0,0,5.515-5.513v-.016a5.544,5.544,0,0,0-4.112-5.332,15.468,15.468,0,0,1,0-29.821Z" transform="translate(-342.485 -290.279)"/><path class="c" d="M342.247,253.252h0a1.21,1.21,0,0,0,1.383.228,11.007,11.007,0,0,1,12.54,2.1,1.224,1.224,0,0,0,1.7.038,1.2,1.2,0,0,0,.021-1.716,13.413,13.413,0,0,0-15.323-2.573,1.2,1.2,0,0,0-.316,1.922Z" transform="translate(-335.053 -250)"/><path class="c" d="M303.532,290.332a13.411,13.411,0,0,0,2.525,15.3,1.23,1.23,0,0,0,1.612.15,1.2,1.2,0,0,0,.124-1.806,11.007,11.007,0,0,1-2.115-12.566,1.21,1.21,0,0,0-.226-1.383h0a1.2,1.2,0,0,0-1.92.308Z" transform="translate(-302.202 -282.828)"/><path class="c" d="M578.182,613.617a11.007,11.007,0,0,1-12.544-2.1,1.2,1.2,0,1,0-1.713,1.689,13.41,13.41,0,0,0,15.323,2.572,1.2,1.2,0,0,0,.311-1.922h0A1.21,1.21,0,0,0,578.182,613.617Z" transform="translate(-518.418 -548.749)"/><path class="c" d="M663.674,511.783a1.222,1.222,0,0,0,.038,1.69,11,11,0,0,1,2.1,12.559,1.21,1.21,0,0,0,.228,1.383h0a1.2,1.2,0,0,0,1.922-.311,13.413,13.413,0,0,0-2.566-15.333,1.2,1.2,0,0,0-1.72.012Z" transform="translate(-600.954 -466.246)"/><path class="c" d="M665.814,291.386a11.009,11.009,0,0,1-2.1,12.549,1.222,1.222,0,0,0-.038,1.69,1.2,1.2,0,0,0,1.718.022,13.41,13.41,0,0,0,2.566-15.328,1.2,1.2,0,0,0-1.922-.311h0A1.21,1.21,0,0,0,665.814,291.386Z" transform="translate(-600.954 -282.814)"/><path class="c" d="M565.667,255.583a11.008,11.008,0,0,1,12.549-2.1,1.21,1.21,0,0,0,1.383-.228h0a1.2,1.2,0,0,0-.311-1.922,13.41,13.41,0,0,0-15.328,2.57,1.2,1.2,0,0,0,.022,1.718A1.218,1.218,0,0,0,565.667,255.583Z" transform="translate(-518.447 -250)"/><path class="c" d="M356.111,611.511a11.008,11.008,0,0,1-12.549,2.1,1.21,1.21,0,0,0-1.383.228h0a1.2,1.2,0,0,0,.311,1.922,13.412,13.412,0,0,0,15.333-2.563,1.2,1.2,0,1,0-1.713-1.687Z" transform="translate(-334.995 -548.744)"/><path class="c" d="M305.675,525.974a11.007,11.007,0,0,1,2.1-12.547,1.222,1.222,0,0,0,.038-1.69,1.2,1.2,0,0,0-1.728-.022,13.406,13.406,0,0,0-2.556,15.326,1.2,1.2,0,0,0,1.922.311h0A1.21,1.21,0,0,0,305.675,525.974Z" transform="translate(-302.2 -466.199)"/></g><g class="b" transform="translate(-2.063 3339.445)"><path class="c" d="M398.313,309.542a5.546,5.546,0,0,0,4.112-5.333v-.014a5.515,5.515,0,0,0-5.515-5.515H396.9a5.544,5.544,0,0,0-5.332,4.112,15.47,15.47,0,0,1-29.823,0,5.544,5.544,0,0,0-5.332-4.112h-.014a5.515,5.515,0,0,0-5.515,5.515v.014a5.546,5.546,0,0,0,4.112,5.333,15.468,15.468,0,0,1,0,29.821,5.544,5.544,0,0,0-4.112,5.332v.012a5.513,5.513,0,0,0,5.515,5.513h.014a5.544,5.544,0,0,0,5.332-4.11,15.47,15.47,0,0,1,29.823,0,5.544,5.544,0,0,0,5.332,4.11h.014a5.515,5.515,0,0,0,5.515-5.513v-.016a5.544,5.544,0,0,0-4.112-5.332,15.468,15.468,0,0,1,0-29.821Z" transform="translate(-342.485 -290.279)"/><path class="c" d="M342.247,253.252h0a1.21,1.21,0,0,0,1.383.228,11.007,11.007,0,0,1,12.54,2.1,1.224,1.224,0,0,0,1.7.038,1.2,1.2,0,0,0,.021-1.716,13.413,13.413,0,0,0-15.323-2.573,1.2,1.2,0,0,0-.316,1.922Z" transform="translate(-335.053 -250)"/><path class="c" d="M303.532,290.332a13.411,13.411,0,0,0,2.525,15.3,1.23,1.23,0,0,0,1.612.15,1.2,1.2,0,0,0,.124-1.806,11.007,11.007,0,0,1-2.115-12.566,1.21,1.21,0,0,0-.226-1.383h0a1.2,1.2,0,0,0-1.92.308Z" transform="translate(-302.202 -282.828)"/><path class="c" d="M578.182,613.617a11.007,11.007,0,0,1-12.544-2.1,1.2,1.2,0,1,0-1.713,1.689,13.41,13.41,0,0,0,15.323,2.572,1.2,1.2,0,0,0,.311-1.922h0A1.21,1.21,0,0,0,578.182,613.617Z" transform="translate(-518.418 -548.749)"/><path class="c" d="M663.674,511.783a1.222,1.222,0,0,0,.038,1.69,11,11,0,0,1,2.1,12.559,1.21,1.21,0,0,0,.228,1.383h0a1.2,1.2,0,0,0,1.922-.311,13.413,13.413,0,0,0-2.566-15.333,1.2,1.2,0,0,0-1.72.012Z" transform="translate(-600.954 -466.246)"/><path class="c" d="M665.814,291.386a11.009,11.009,0,0,1-2.1,12.549,1.222,1.222,0,0,0-.038,1.69,1.2,1.2,0,0,0,1.718.022,13.41,13.41,0,0,0,2.566-15.328,1.2,1.2,0,0,0-1.922-.311h0A1.21,1.21,0,0,0,665.814,291.386Z" transform="translate(-600.954 -282.814)"/><path class="c" d="M565.667,255.583a11.008,11.008,0,0,1,12.549-2.1,1.21,1.21,0,0,0,1.383-.228h0a1.2,1.2,0,0,0-.311-1.922,13.41,13.41,0,0,0-15.328,2.57,1.2,1.2,0,0,0,.022,1.718A1.218,1.218,0,0,0,565.667,255.583Z" transform="translate(-518.447 -250)"/><path class="c" d="M356.111,611.511a11.008,11.008,0,0,1-12.549,2.1,1.21,1.21,0,0,0-1.383.228h0a1.2,1.2,0,0,0,.311,1.922,13.412,13.412,0,0,0,15.333-2.563,1.2,1.2,0,1,0-1.713-1.687Z" transform="translate(-334.995 -548.744)"/><path class="c" d="M305.675,525.974a11.007,11.007,0,0,1,2.1-12.547,1.222,1.222,0,0,0,.038-1.69,1.2,1.2,0,0,0-1.728-.022,13.406,13.406,0,0,0-2.556,15.326,1.2,1.2,0,0,0,1.922.311h0A1.21,1.21,0,0,0,305.675,525.974Z" transform="translate(-302.2 -466.199)"/></g><g class="b" transform="translate(86.938 3339.445)"><path class="c" d="M398.313,309.542a5.546,5.546,0,0,0,4.112-5.333v-.014a5.515,5.515,0,0,0-5.515-5.515H396.9a5.544,5.544,0,0,0-5.332,4.112,15.47,15.47,0,0,1-29.823,0,5.544,5.544,0,0,0-5.332-4.112h-.014a5.515,5.515,0,0,0-5.515,5.515v.014a5.546,5.546,0,0,0,4.112,5.333,15.468,15.468,0,0,1,0,29.821,5.544,5.544,0,0,0-4.112,5.332v.012a5.513,5.513,0,0,0,5.515,5.513h.014a5.544,5.544,0,0,0,5.332-4.11,15.47,15.47,0,0,1,29.823,0,5.544,5.544,0,0,0,5.332,4.11h.014a5.515,5.515,0,0,0,5.515-5.513v-.016a5.544,5.544,0,0,0-4.112-5.332,15.468,15.468,0,0,1,0-29.821Z" transform="translate(-342.485 -290.279)"/><path class="c" d="M342.247,253.252h0a1.21,1.21,0,0,0,1.383.228,11.007,11.007,0,0,1,12.54,2.1,1.224,1.224,0,0,0,1.7.038,1.2,1.2,0,0,0,.021-1.716,13.413,13.413,0,0,0-15.323-2.573,1.2,1.2,0,0,0-.316,1.922Z" transform="translate(-335.053 -250)"/><path class="c" d="M303.532,290.332a13.411,13.411,0,0,0,2.525,15.3,1.23,1.23,0,0,0,1.612.15,1.2,1.2,0,0,0,.124-1.806,11.007,11.007,0,0,1-2.115-12.566,1.21,1.21,0,0,0-.226-1.383h0a1.2,1.2,0,0,0-1.92.308Z" transform="translate(-302.202 -282.828)"/><path class="c" d="M578.182,613.617a11.007,11.007,0,0,1-12.544-2.1,1.2,1.2,0,1,0-1.713,1.689,13.41,13.41,0,0,0,15.323,2.572,1.2,1.2,0,0,0,.311-1.922h0A1.21,1.21,0,0,0,578.182,613.617Z" transform="translate(-518.418 -548.749)"/><path class="c" d="M663.674,511.783a1.222,1.222,0,0,0,.038,1.69,11,11,0,0,1,2.1,12.559,1.21,1.21,0,0,0,.228,1.383h0a1.2,1.2,0,0,0,1.922-.311,13.413,13.413,0,0,0-2.566-15.333,1.2,1.2,0,0,0-1.72.012Z" transform="translate(-600.954 -466.246)"/><path class="c" d="M665.814,291.386a11.009,11.009,0,0,1-2.1,12.549,1.222,1.222,0,0,0-.038,1.69,1.2,1.2,0,0,0,1.718.022,13.41,13.41,0,0,0,2.566-15.328,1.2,1.2,0,0,0-1.922-.311h0A1.21,1.21,0,0,0,665.814,291.386Z" transform="translate(-600.954 -282.814)"/><path class="c" d="M565.667,255.583a11.008,11.008,0,0,1,12.549-2.1,1.21,1.21,0,0,0,1.383-.228h0a1.2,1.2,0,0,0-.311-1.922,13.41,13.41,0,0,0-15.328,2.57,1.2,1.2,0,0,0,.022,1.718A1.218,1.218,0,0,0,565.667,255.583Z" transform="translate(-518.447 -250)"/><path class="c" d="M356.111,611.511a11.008,11.008,0,0,1-12.549,2.1,1.21,1.21,0,0,0-1.383.228h0a1.2,1.2,0,0,0,.311,1.922,13.412,13.412,0,0,0,15.333-2.563,1.2,1.2,0,1,0-1.713-1.687Z" transform="translate(-334.995 -548.744)"/><path class="c" d="M305.675,525.974a11.007,11.007,0,0,1,2.1-12.547,1.222,1.222,0,0,0,.038-1.69,1.2,1.2,0,0,0-1.728-.022,13.406,13.406,0,0,0-2.556,15.326,1.2,1.2,0,0,0,1.922.311h0A1.21,1.21,0,0,0,305.675,525.974Z" transform="translate(-302.2 -466.199)"/></g><g class="b" transform="translate(175.938 3339.445)"><path class="c" d="M398.313,309.542a5.546,5.546,0,0,0,4.112-5.333v-.014a5.515,5.515,0,0,0-5.515-5.515H396.9a5.544,5.544,0,0,0-5.332,4.112,15.47,15.47,0,0,1-29.823,0,5.544,5.544,0,0,0-5.332-4.112h-.014a5.515,5.515,0,0,0-5.515,5.515v.014a5.546,5.546,0,0,0,4.112,5.333,15.468,15.468,0,0,1,0,29.821,5.544,5.544,0,0,0-4.112,5.332v.012a5.513,5.513,0,0,0,5.515,5.513h.014a5.544,5.544,0,0,0,5.332-4.11,15.47,15.47,0,0,1,29.823,0,5.544,5.544,0,0,0,5.332,4.11h.014a5.515,5.515,0,0,0,5.515-5.513v-.016a5.544,5.544,0,0,0-4.112-5.332,15.468,15.468,0,0,1,0-29.821Z" transform="translate(-342.485 -290.279)"/><path class="c" d="M342.247,253.252h0a1.21,1.21,0,0,0,1.383.228,11.007,11.007,0,0,1,12.54,2.1,1.224,1.224,0,0,0,1.7.038,1.2,1.2,0,0,0,.021-1.716,13.413,13.413,0,0,0-15.323-2.573,1.2,1.2,0,0,0-.316,1.922Z" transform="translate(-335.053 -250)"/><path class="c" d="M303.532,290.332a13.411,13.411,0,0,0,2.525,15.3,1.23,1.23,0,0,0,1.612.15,1.2,1.2,0,0,0,.124-1.806,11.007,11.007,0,0,1-2.115-12.566,1.21,1.21,0,0,0-.226-1.383h0a1.2,1.2,0,0,0-1.92.308Z" transform="translate(-302.202 -282.828)"/><path class="c" d="M578.182,613.617a11.007,11.007,0,0,1-12.544-2.1,1.2,1.2,0,1,0-1.713,1.689,13.41,13.41,0,0,0,15.323,2.572,1.2,1.2,0,0,0,.311-1.922h0A1.21,1.21,0,0,0,578.182,613.617Z" transform="translate(-518.418 -548.749)"/><path class="c" d="M663.674,511.783a1.222,1.222,0,0,0,.038,1.69,11,11,0,0,1,2.1,12.559,1.21,1.21,0,0,0,.228,1.383h0a1.2,1.2,0,0,0,1.922-.311,13.413,13.413,0,0,0-2.566-15.333,1.2,1.2,0,0,0-1.72.012Z" transform="translate(-600.954 -466.246)"/><path class="c" d="M665.814,291.386a11.009,11.009,0,0,1-2.1,12.549,1.222,1.222,0,0,0-.038,1.69,1.2,1.2,0,0,0,1.718.022,13.41,13.41,0,0,0,2.566-15.328,1.2,1.2,0,0,0-1.922-.311h0A1.21,1.21,0,0,0,665.814,291.386Z" transform="translate(-600.954 -282.814)"/><path class="c" d="M565.667,255.583a11.008,11.008,0,0,1,12.549-2.1,1.21,1.21,0,0,0,1.383-.228h0a1.2,1.2,0,0,0-.311-1.922,13.41,13.41,0,0,0-15.328,2.57,1.2,1.2,0,0,0,.022,1.718A1.218,1.218,0,0,0,565.667,255.583Z" transform="translate(-518.447 -250)"/><path class="c" d="M356.111,611.511a11.008,11.008,0,0,1-12.549,2.1,1.21,1.21,0,0,0-1.383.228h0a1.2,1.2,0,0,0,.311,1.922,13.412,13.412,0,0,0,15.333-2.563,1.2,1.2,0,1,0-1.713-1.687Z" transform="translate(-334.995 -548.744)"/><path class="c" d="M305.675,525.974a11.007,11.007,0,0,1,2.1-12.547,1.222,1.222,0,0,0,.038-1.69,1.2,1.2,0,0,0-1.728-.022,13.406,13.406,0,0,0-2.556,15.326,1.2,1.2,0,0,0,1.922.311h0A1.21,1.21,0,0,0,305.675,525.974Z" transform="translate(-302.2 -466.199)"/></g><g class="b" transform="translate(264.938 3339.445)"><path class="c" d="M398.313,309.542a5.546,5.546,0,0,0,4.112-5.333v-.014a5.515,5.515,0,0,0-5.515-5.515H396.9a5.544,5.544,0,0,0-5.332,4.112,15.47,15.47,0,0,1-29.823,0,5.544,5.544,0,0,0-5.332-4.112h-.014a5.515,5.515,0,0,0-5.515,5.515v.014a5.546,5.546,0,0,0,4.112,5.333,15.468,15.468,0,0,1,0,29.821,5.544,5.544,0,0,0-4.112,5.332v.012a5.513,5.513,0,0,0,5.515,5.513h.014a5.544,5.544,0,0,0,5.332-4.11,15.47,15.47,0,0,1,29.823,0,5.544,5.544,0,0,0,5.332,4.11h.014a5.515,5.515,0,0,0,5.515-5.513v-.016a5.544,5.544,0,0,0-4.112-5.332,15.468,15.468,0,0,1,0-29.821Z" transform="translate(-342.485 -290.279)"/><path class="c" d="M342.247,253.252h0a1.21,1.21,0,0,0,1.383.228,11.007,11.007,0,0,1,12.54,2.1,1.224,1.224,0,0,0,1.7.038,1.2,1.2,0,0,0,.021-1.716,13.413,13.413,0,0,0-15.323-2.573,1.2,1.2,0,0,0-.316,1.922Z" transform="translate(-335.053 -250)"/><path class="c" d="M303.532,290.332a13.411,13.411,0,0,0,2.525,15.3,1.23,1.23,0,0,0,1.612.15,1.2,1.2,0,0,0,.124-1.806,11.007,11.007,0,0,1-2.115-12.566,1.21,1.21,0,0,0-.226-1.383h0a1.2,1.2,0,0,0-1.92.308Z" transform="translate(-302.202 -282.828)"/><path class="c" d="M578.182,613.617a11.007,11.007,0,0,1-12.544-2.1,1.2,1.2,0,1,0-1.713,1.689,13.41,13.41,0,0,0,15.323,2.572,1.2,1.2,0,0,0,.311-1.922h0A1.21,1.21,0,0,0,578.182,613.617Z" transform="translate(-518.418 -548.749)"/><path class="c" d="M663.674,511.783a1.222,1.222,0,0,0,.038,1.69,11,11,0,0,1,2.1,12.559,1.21,1.21,0,0,0,.228,1.383h0a1.2,1.2,0,0,0,1.922-.311,13.413,13.413,0,0,0-2.566-15.333,1.2,1.2,0,0,0-1.72.012Z" transform="translate(-600.954 -466.246)"/><path class="c" d="M665.814,291.386a11.009,11.009,0,0,1-2.1,12.549,1.222,1.222,0,0,0-.038,1.69,1.2,1.2,0,0,0,1.718.022,13.41,13.41,0,0,0,2.566-15.328,1.2,1.2,0,0,0-1.922-.311h0A1.21,1.21,0,0,0,665.814,291.386Z" transform="translate(-600.954 -282.814)"/><path class="c" d="M565.667,255.583a11.008,11.008,0,0,1,12.549-2.1,1.21,1.21,0,0,0,1.383-.228h0a1.2,1.2,0,0,0-.311-1.922,13.41,13.41,0,0,0-15.328,2.57,1.2,1.2,0,0,0,.022,1.718A1.218,1.218,0,0,0,565.667,255.583Z" transform="translate(-518.447 -250)"/><path class="c" d="M356.111,611.511a11.008,11.008,0,0,1-12.549,2.1,1.21,1.21,0,0,0-1.383.228h0a1.2,1.2,0,0,0,.311,1.922,13.412,13.412,0,0,0,15.333-2.563,1.2,1.2,0,1,0-1.713-1.687Z" transform="translate(-334.995 -548.744)"/><path class="c" d="M305.675,525.974a11.007,11.007,0,0,1,2.1-12.547,1.222,1.222,0,0,0,.038-1.69,1.2,1.2,0,0,0-1.728-.022,13.406,13.406,0,0,0-2.556,15.326,1.2,1.2,0,0,0,1.922.311h0A1.21,1.21,0,0,0,305.675,525.974Z" transform="translate(-302.2 -466.199)"/></g></g></svg>