<svg xmlns="http://www.w3.org/2000/svg" xmlns:xlink="http://www.w3.org/1999/xlink" width="205.73" height="187.643" viewBox="0 0 205.73 187.643"><defs><style>.a{opacity:0.071;fill:url(#a);}.b{fill:#00b1bf;}.c{fill:#020288;}</style><linearGradient id="a" x1="0.5" x2="0.5" y2="1" gradientUnits="objectBoundingBox"><stop offset="0" stop-color="#00b1bf"/><stop offset="1" stop-color="#14c6d5"/></linearGradient></defs><g transform="translate(-929 -442.468)"><path class="a" d="M2872.854,917.761c-33.94-33.94,14.026-36.323-18.254-50.711s-41.983-3.5-70.285-4.03-30.387-9.51-59.346,10.411c-13.177,9.064-23.959,8.17-28.307,22.1s12.014,20.487,10.915,33.617c-2.018,24.092-11.16,25.778-8.8,53.094s35.141,33.247,43.995,33.247-1.2,24.18,41.547,30.9,60.134-29.549,88.54-36.559,24.738-8.028,28.427-23.891-21.418-11.893-13.67-39.562S2872.854,917.761,2872.854,917.761Z" transform="translate(-1766.924 -417.099)"/><g transform="translate(960.277 454.119)"><g transform="translate(13.337 53.555)"><path class="b" d="M369.494,187.948h21.413V279.79H369.494Z" transform="translate(-288.389 -187.948)"/><g transform="translate(0 19.51)"><path class="b" d="M84.861,256.417h18.483v72.332H84.861Z" transform="translate(-84.861 -256.417)"/></g></g><g transform="translate(0 0)"><path class="c" d="M287.912,100.319H274.786a2.851,2.851,0,0,0-2.851,2.851v13.148a2.851,2.851,0,0,0,2.851,2.851h13.126a2.851,2.851,0,0,0,2.851-2.851V103.17a2.851,2.851,0,0,0-2.851-2.851Zm-2.851,13.148h-7.424v-7.446h7.424Z" transform="translate(-205.292 -71.734)"/><path class="c" d="M197.187,100.319H184.061a2.851,2.851,0,0,0-2.851,2.851v13.148a2.851,2.851,0,0,0,2.851,2.851h13.126a2.851,2.851,0,0,0,2.851-2.851V103.17a2.851,2.851,0,0,0-2.851-2.851Zm-2.851,13.148h-7.424v-7.446h7.424Z" transform="translate(-140.419 -71.734)"/><path class="c" d="M287.912,201.895H274.786a2.851,2.851,0,0,0-2.851,2.851v13.148a2.851,2.851,0,0,0,2.851,2.851h13.126a2.851,2.851,0,0,0,2.851-2.851V204.746A2.851,2.851,0,0,0,287.912,201.895Zm-2.851,13.148h-7.424V207.6h7.424Z" transform="translate(-205.292 -144.366)"/><path class="c" d="M197.187,201.895H184.061a2.851,2.851,0,0,0-2.851,2.851v13.148a2.851,2.851,0,0,0,2.851,2.851h13.126a2.851,2.851,0,0,0,2.851-2.851V204.746A2.851,2.851,0,0,0,197.187,201.895Zm-2.851,13.148h-7.424V207.6h7.424Z" transform="translate(-140.419 -144.366)"/><path class="c" d="M287.912,303.471H274.786a2.851,2.851,0,0,0-2.851,2.851V319.47a2.851,2.851,0,0,0,2.851,2.851h13.126a2.851,2.851,0,0,0,2.851-2.851V306.322A2.851,2.851,0,0,0,287.912,303.471Zm-2.851,13.148h-7.424v-7.446h7.424Z" transform="translate(-205.292 -216.998)"/><path class="c" d="M197.187,303.471H184.061a2.851,2.851,0,0,0-2.851,2.851V319.47a2.851,2.851,0,0,0,2.851,2.851h13.126a2.851,2.851,0,0,0,2.851-2.851V306.322A2.851,2.851,0,0,0,197.187,303.471Zm-2.851,13.148h-7.424v-7.446h7.424Z" transform="translate(-140.419 -216.998)"/><path class="c" d="M159.409,140.19H135.348V15.946a2.851,2.851,0,0,0-2.851-2.851h-6.069V2.851A2.851,2.851,0,0,0,123.577,0H78.795a2.851,2.851,0,0,0-2.851,2.851V13.095H69.875a2.851,2.851,0,0,0-2.851,2.851V140.19H40.906a2.851,2.851,0,1,0,0,5.7h118.5a2.851,2.851,0,1,0,0-5.7ZM81.646,5.7h39.08v7.393H81.646ZM92.608,140.19V124.243h17.155V140.19Zm22.857,0v-18.8a2.851,2.851,0,0,0-2.851-2.851H89.757a2.851,2.851,0,0,0-2.851,2.851v18.8H72.726V18.8h56.92V140.19Z" transform="translate(-38.055 0)"/></g></g></g></svg>