<svg xmlns="http://www.w3.org/2000/svg" width="50.75" height="58" viewBox="0 0 50.75 58"><defs><style>.a{fill:#e9f5f5;}</style></defs><path class="a" d="M-49.391-29a1.363,1.363,0,0,0-1.359,1.359V1.812A5.439,5.439,0,0,0-45.313,7.25H-5.438A5.439,5.439,0,0,0,0,1.812V-27.641A1.363,1.363,0,0,0-1.359-29ZM0-33.984v-4.078A5.439,5.439,0,0,0-5.438-43.5h-5.437v-5.891a1.363,1.363,0,0,0-1.359-1.359h-4.531a1.363,1.363,0,0,0-1.359,1.359V-43.5h-14.5v-5.891a1.363,1.363,0,0,0-1.359-1.359h-4.531a1.363,1.363,0,0,0-1.359,1.359V-43.5h-5.437a5.439,5.439,0,0,0-5.437,5.437v4.078a1.363,1.363,0,0,0,1.359,1.359H-1.359A1.363,1.363,0,0,0,0-33.984Z" transform="translate(50.75 50.75)"/></svg>