<svg xmlns="http://www.w3.org/2000/svg" width="37.311" height="34.492" viewBox="0 0 37.311 34.492"><defs><style>.a{fill:#fff;}.b{fill:#00b1bf;}</style></defs><g transform="translate(0 0)"><g transform="translate(0 0)"><path class="a" d="M34.813,27.213h-4.1V24.758a2.124,2.124,0,0,0-2.133-2.111H22.37V20.075a.729.729,0,0,0-.729-.729H15.67a.729.729,0,0,0-.729.729v2.572H8.79a2.124,2.124,0,0,0-2.133,2.111v2.455H2.5a2.5,2.5,0,0,0-2.5,2.5V51.339a2.5,2.5,0,0,0,2.5,2.5H34.813a2.5,2.5,0,0,0,2.5-2.5V29.711a2.5,2.5,0,0,0-2.5-2.5ZM20.912,20.8v3.62h-4.49L16.4,20.8Zm-12.8,3.955A.665.665,0,0,1,8.79,24.1h6.151v1.048a.8.8,0,0,0,.752.784H21.68a.729.729,0,0,0,.729-.729V24.1h6.174a.665.665,0,0,1,.675.654v2.455H8.115ZM35.854,51.339a1.042,1.042,0,0,1-1.041,1.041H2.5a1.042,1.042,0,0,1-1.041-1.041V29.711A1.042,1.042,0,0,1,2.5,28.67H7.255a.734.734,0,0,0,.132.012h22.6a.728.728,0,0,0,.132-.012h4.695a1.042,1.042,0,0,1,1.041,1.041V51.339Z" transform="translate(0 -19.346)"/><path class="a" d="M118.27,244.012a3.326,3.326,0,1,0-5.472,0,1.833,1.833,0,0,0-1.572,1.812v3.465a.729.729,0,0,0,.729.729h7.159a.729.729,0,0,0,.729-.729v-3.465A1.833,1.833,0,0,0,118.27,244.012Zm-2.736-3.769a1.875,1.875,0,1,1-1.869,1.875A1.874,1.874,0,0,1,115.534,240.244Zm2.851,8.317h-5.7v-2.736a.373.373,0,0,1,.373-.373h4.956a.373.373,0,0,1,.373.373Z" transform="translate(-103.121 -222.795)"/><path class="a" d="M321.923,262.135h5.028a.729.729,0,0,0,0-1.457h-5.028a.729.729,0,1,0,0,1.457Z" transform="translate(-297.788 -243.091)"/><path class="a" d="M329.731,305.849h-7.808a.729.729,0,1,0,0,1.457h7.808a.729.729,0,0,0,0-1.457Z" transform="translate(-297.788 -284.971)"/><path class="a" d="M329.731,351.019h-7.808a.729.729,0,1,0,0,1.457h7.808a.729.729,0,1,0,0-1.457Z" transform="translate(-297.788 -326.849)"/><rect class="b" width="6.026" height="3.348" transform="translate(9.192 22.44)"/></g></g></svg>