<svg xmlns="http://www.w3.org/2000/svg" width="114" height="114" viewBox="0 0 114 114"><defs><style>.a{fill:rgba(0,177,191,0.11);stroke:#dff4f5;stroke-width:3px;}.b{fill:#00b1bf;}.c{stroke:none;}.d{fill:none;}</style></defs><g transform="translate(-930 -314)"><g class="a" transform="translate(930 314)"><circle class="c" cx="57" cy="57" r="57"/><circle class="d" cx="57" cy="57" r="55.5"/></g><path class="b" d="M-8.775-42.007-39.087-11.7-50.225-22.833a1.383,1.383,0,0,0-1.956,0l-3.259,3.259a1.383,1.383,0,0,0,0,1.956L-40.065-2.243a1.383,1.383,0,0,0,1.956,0L-3.561-36.792a1.383,1.383,0,0,0,0-1.956L-6.82-42.007A1.383,1.383,0,0,0-8.775-42.007Z" transform="translate(1017 394)"/></g></svg>