<svg xmlns="http://www.w3.org/2000/svg" xmlns:xlink="http://www.w3.org/1999/xlink" width="70" height="71" viewBox="0 0 70 71"><defs><style>.a{fill:none;}.b{fill:#cbcbcb;font-size:31px;font-family:FontAwesome5Pro-Solid, 'Font Awesome \35  Pro';}.c,.d{stroke:none;}.d{fill:#cbcbcb;}.e{filter:url(#c);}.f{filter:url(#a);}</style><filter id="a" x="0" y="0" width="70" height="71" filterUnits="userSpaceOnUse"><feOffset dy="1" input="SourceAlpha"/><feGaussianBlur result="b"/><feFlood flood-opacity="0.18"/><feComposite operator="in" in2="b"/><feComposite in="SourceGraphic"/></filter><filter id="c" x="21" y="18" width="28" height="32" filterUnits="userSpaceOnUse"><feOffset dy="1" input="SourceAlpha"/><feGaussianBlur result="d"/><feFlood flood-opacity="0.333"/><feComposite operator="in" in2="d"/><feComposite in="SourceGraphic"/></filter></defs><g class="f" transform="matrix(1, 0, 0, 1, 0, 0)"><g class="a"><path class="c" d="M35,0A35,35,0,1,1,0,35,35,35,0,0,1,35,0Z"/><path class="d" d="M 35 4 C 30.81326293945312 4 26.75388717651367 4.819084167480469 22.93462371826172 6.434486389160156 C 19.24364852905273 7.995651245117188 15.92797470092773 10.23141098022461 13.07968902587891 13.07968902587891 C 10.23141098022461 15.92797470092773 7.995651245117188 19.24364852905273 6.434486389160156 22.93462371826172 C 4.819084167480469 26.75388717651367 4 30.81326293945312 4 35 C 4 39.18673706054688 4.819084167480469 43.24611282348633 6.434486389160156 47.06537628173828 C 7.995651245117188 50.75634765625 10.23141098022461 54.07202529907227 13.07968902587891 56.92031097412109 C 15.92797470092773 59.76858520507812 19.24364852905273 62.00434875488281 22.93462371826172 63.56551361083984 C 26.75388717651367 65.18091583251953 30.81326293945312 66 35 66 C 39.18673706054688 66 43.24611282348633 65.18091583251953 47.06537628173828 63.56551361083984 C 50.75634765625 62.00434875488281 54.07202529907227 59.76858520507812 56.92031097412109 56.92031097412109 C 59.76858520507812 54.07202529907227 62.00434875488281 50.75634765625 63.56551361083984 47.06537628173828 C 65.18091583251953 43.24611282348633 66 39.18673706054688 66 35 C 66 30.81326293945312 65.18091583251953 26.75388717651367 63.56551361083984 22.93462371826172 C 62.00434875488281 19.24364852905273 59.76858520507812 15.92797470092773 56.92031097412109 13.07968902587891 C 54.07202529907227 10.23141098022461 50.75634765625 7.995651245117188 47.06537628173828 6.434486389160156 C 43.24611282348633 4.819084167480469 39.18673706054688 4 35 4 M 35 0 C 54.32996368408203 0 70 15.67003631591797 70 35 C 70 54.32996368408203 54.32996368408203 70 35 70 C 15.67003631591797 70 0 54.32996368408203 0 35 C 0 15.67003631591797 15.67003631591797 0 35 0 Z"/></g></g><g class="e" transform="matrix(1, 0, 0, 1, 0, 0)"><text class="b" transform="translate(35 45)"><tspan x="-13.563" y="0"></tspan></text></g></svg>