<svg xmlns="http://www.w3.org/2000/svg" xmlns:xlink="http://www.w3.org/1999/xlink" width="205.729" height="187.643" viewBox="0 0 205.729 187.643"><defs><style>.a{opacity:0.071;fill:url(#a);}.b{fill:#020288;}.c{fill:#00b1bf;}.d{fill:#fff;}</style><linearGradient id="a" x1="0.5" x2="0.5" y2="1" gradientUnits="objectBoundingBox"><stop offset="0" stop-color="#00b1bf"/><stop offset="1" stop-color="#14c6d5"/></linearGradient></defs><g transform="translate(-1399 -442.468)"><path class="a" d="M2872.854,917.76c-33.94-33.94,14.025-36.323-18.255-50.711s-41.982-3.5-70.284-4.03-30.387-9.51-59.347,10.411c-13.177,9.064-23.959,8.17-28.307,22.1s12.013,20.486,10.915,33.617c-2.017,24.092-11.16,25.778-8.8,53.094s35.14,33.247,43.994,33.247-1.2,24.18,41.548,30.9,60.133-29.549,88.539-36.559,24.737-8.028,28.426-23.891-21.417-11.893-13.669-39.562S2872.854,917.76,2872.854,917.76Z" transform="translate(-1296.924 -417.099)"/><g transform="translate(1429.625 472.137)"><g transform="translate(0 0)"><path class="b" d="M133.566,28.481H10.315A10.338,10.338,0,0,0,0,38.818V147.8a8.546,8.546,0,0,0,8.52,8.553H135.361a8.546,8.546,0,0,0,8.52-8.553V38.818a10.337,10.337,0,0,0-10.315-10.337ZM5.62,38.818A4.711,4.711,0,0,1,10.315,34.1H133.566a4.711,4.711,0,0,1,4.695,4.716v16.7H5.62ZM138.26,147.8a2.919,2.919,0,0,1-2.9,2.933H8.52a2.919,2.919,0,0,1-2.9-2.933V61.139H138.26Z" transform="translate(0 -28.481)"/><path class="b" d="M312.124,76.589h-3.775a2.81,2.81,0,1,0,0,5.62h3.775a2.81,2.81,0,1,0,0-5.62Z" transform="translate(-219.677 -63.07)"/><path class="b" d="M374.256,76.589h-3.775a2.81,2.81,0,1,0,0,5.62h3.775a2.81,2.81,0,1,0,0-5.62Z" transform="translate(-264.349 -63.07)"/><path class="b" d="M436.388,76.589h-3.775a2.81,2.81,0,1,0,0,5.62h3.775a2.81,2.81,0,1,0,0-5.62Z" transform="translate(-309.021 -63.07)"/><path class="b" d="M91.321,76.589H64.077a2.81,2.81,0,1,0,0,5.62H91.321a2.81,2.81,0,0,0,0-5.62Z" transform="translate(-44.05 -63.07)"/></g><g transform="translate(35.861 41.635)"><ellipse class="c" cx="36.079" cy="36.079" rx="36.079" ry="36.079"/><path class="d" d="M221.513,243.834a14.478,14.478,0,1,0-22.477,0,12.669,12.669,0,0,0-6.632,11.1v9.632a2.81,2.81,0,0,0,2.81,2.81h30.122a2.81,2.81,0,0,0,2.81-2.81v-9.632A12.684,12.684,0,0,0,221.513,243.834Zm-11.238-17.977a8.858,8.858,0,1,1-8.858,8.858,8.868,8.868,0,0,1,8.858-8.858Zm12.251,35.9h-24.5v-6.821a7.02,7.02,0,0,1,6.4-6.974,14.473,14.473,0,0,0,11.694,0,7.027,7.027,0,0,1,6.4,6.974v6.821Z" transform="translate(-174.196 -207.985)"/></g></g></g></svg>